<svg xmlns="http://www.w3.org/2000/svg" width="45" height="45" viewBox="0 0 73.386 66.547"><g transform="translate(-0.596 487.596)"><path d="M34.989-487.438a11.114,11.114,0,0,0-6.546,4.292c-.789,1.105-26.211,45.116-26.871,46.508A9.094,9.094,0,0,0,.6-432.03a9.334,9.334,0,0,0,.316,2.857,11.073,11.073,0,0,0,6.675,7.407c1.981.746.775.718,29.556.718,29.01,0,27.862.029,29.828-.761a10.3,10.3,0,0,0,3.732-2.541,9.551,9.551,0,0,0,2.6-4,10.466,10.466,0,0,0-.431-8.412c-.617-1.306-25.35-44.2-26.455-45.905a11.408,11.408,0,0,0-6.359-4.636A15.056,15.056,0,0,0,34.989-487.438Zm4.077,19.809a3.973,3.973,0,0,1,2.2,3.115c.086.459-.029,3.144-.287,7.493-.23,3.718-.474,8.1-.545,9.747-.115,2.727-.144,3.029-.474,3.66a2.778,2.778,0,0,1-2.412,1.579,2.848,2.848,0,0,1-3.1-1.766c-.23-.56-.345-2.139-1.292-18.732-.115-1.952.1-2.914.847-3.9a5.377,5.377,0,0,1,2.383-1.608A5.025,5.025,0,0,1,39.066-467.629Zm0,29a4.088,4.088,0,0,1,1.22,6.273,4.028,4.028,0,0,1-7.062-2.684A3.994,3.994,0,0,1,39.066-438.633Z" fill="#f99d34"/></g></svg>