<svg xmlns="http://www.w3.org/2000/svg" width="50" height="50" viewBox="0 0 49.499 50"><g transform="translate(-0.133 511.717)"><path d="M95.112-511.642a11.6,11.6,0,0,0-6.84,3.824,10.784,10.784,0,0,0-2.58,7.005,10.618,10.618,0,0,0,2.2,6.757,11.135,11.135,0,0,0,6,4.052,8.126,8.126,0,0,0,2.819.28,8.462,8.462,0,0,0,2.694-.238,11.073,11.073,0,0,0,7.192-5.855,10.974,10.974,0,0,0-2.135-12.726,11.021,11.021,0,0,0-5.036-2.85A13.841,13.841,0,0,0,95.112-511.642Z" transform="translate(-76.547 0)" fill="#f99d34"/><path d="M8.281-255.594a9.615,9.615,0,0,0-5.236,2.769,9.488,9.488,0,0,0-2.779,5.343,34.616,34.616,0,0,0-.127,5.167c.029,4.163-.019,8.109.127,8.216.263.2.9.02,12.45.049,6.376.01,13.583-.01,13.563-.049-.712-1.414-4.033-4.531-.951-8.973-.136-1.024-2.176-3.717-1.078-5.893a5.768,5.768,0,0,1,2.437-4.1,5.527,5.527,0,0,1,3.666-1.511c.682,0,.76-.02.819-.2a.321.321,0,0,0-.02-.292,6.179,6.179,0,0,0-1.063-.351l-.965-.273-10.042-.019C10.777-255.73,8.915-255.71,8.281-255.594Z" transform="translate(0 -228.879)" fill="#f99d34"/><path d="M289.781-234.854c-.429.185-.565.526-.7,1.657-.156,1.287-.2,1.511-.322,1.511a4.693,4.693,0,0,0-.829.448,2.291,2.291,0,0,1-.887.4c-.088-.029-.663-.253-1.267-.507-.995-.409-1.131-.439-1.423-.341-.439.136-.478.195-1.511,2-1.238,2.174-1.238,2.174.419,3.442l.877.673v.994l.01,1-.994.77a9.355,9.355,0,0,0-1.1.955c-.234.448-.107.819.79,2.4,1.033,1.8,1.072,1.862,1.511,2,.292.1.429.068,1.423-.341.6-.253,1.18-.478,1.267-.507a2.291,2.291,0,0,1,.887.4,4.694,4.694,0,0,0,.829.448c.117,0,.166.224.322,1.511.2,1.745.292,1.8,2.818,1.8s2.613-.058,2.818-1.8c.166-1.4.185-1.482.429-1.55a4.57,4.57,0,0,0,.829-.458,1.665,1.665,0,0,1,.78-.351c.088.029.663.253,1.267.507.994.41,1.131.439,1.423.341.439-.137.478-.195,1.511-2,1.238-2.174,1.238-2.213-.468-3.49l-.829-.614v-1l-.01-1.014.946-.712c1.6-1.209,1.6-1.219.312-3.471-1.228-2.164-1.336-2.233-2.642-1.687l-1.248.507-.39.146-.829-.507a4.593,4.593,0,0,1-.887-.614,10.588,10.588,0,0,1-.185-1.189c-.214-1.862-.273-1.9-2.847-1.9A7.807,7.807,0,0,0,289.781-234.854Zm3.539,6.4A4.165,4.165,0,0,1,296-223.973a4.19,4.19,0,0,1-4.7,3.51,4.19,4.19,0,0,1-3.51-4.7,4.158,4.158,0,0,1,4.446-3.529A5.319,5.319,0,0,1,293.32-228.458Z" transform="translate(-252.202 -247.581)" fill="#f99d34"/></g></svg>