<svg xmlns="http://www.w3.org/2000/svg" width="28" height="40" viewBox="0 0 28 40"><path d="M5.544,4.73C5,5.8,5,7.2,5,10V34c0,2.8,0,4.2.544,5.27A5,5,0,0,0,7.73,41.454C8.8,42,10.2,42,13,42H25c2.8,0,4.2,0,5.27-.546a5,5,0,0,0,2.184-2.184C33,38.2,33,36.8,33,34V17.976a12.827,12.827,0,0,0-.166-2.892,6,6,0,0,0-.72-1.734,12.669,12.669,0,0,0-1.926-2.16L23.812,4.81A12.924,12.924,0,0,0,21.65,2.884a6,6,0,0,0-1.734-.72A12.991,12.991,0,0,0,17.024,2H13c-2.8,0-4.2,0-5.27.544A5,5,0,0,0,5.544,4.73ZM17,16V7.64a1.642,1.642,0,0,1,2.754-1.208L28.526,15.2a1.638,1.638,0,0,1-1.16,2.8H19A2,2,0,0,1,17,16Z" transform="translate(-5 -2)" fill="#f99d34" fill-rule="evenodd"/></svg>