<svg xmlns="http://www.w3.org/2000/svg" xmlns:xlink="http://www.w3.org/1999/xlink" width="126.371" height="52.783" viewBox="0 0 126.371 52.783"><defs><clipPath id="a"><path d="M159,.79h14.467V40.263H159Zm0,0" transform="translate(-159 -0.79)"/></clipPath><clipPath id="b"><path d="M183,9h20.469V43.722H183Zm0,0" transform="translate(-183 -9)"/></clipPath><clipPath id="c"><path d="M0,.79H53.24V53.573H0Zm0,0" transform="translate(0 -0.79)"/></clipPath></defs><g transform="translate(0 -0.79)"><path d="M121.558,28.207c-2.769,0-4.833,1.361-4.833,4.634,0,2.466,1.358,4.179,4.683,4.179,2.819,0,4.734-1.659,4.734-4.281C126.143,29.769,124.429,28.207,121.558,28.207ZM116.02,51.326a4.466,4.466,0,0,0-1.309,2.669c0,2.014,2.566,2.618,6.092,2.618,2.923,0,6.9-.2,6.9-2.918,0-1.616-1.914-1.716-4.333-1.867Zm14.908-22.967a8,8,0,0,1,1.863,5.089c0,5.588-4.381,8.863-10.727,8.863a15.953,15.953,0,0,1-3.981-.454l-1.661,2.67,4.934.3c8.715.556,13.851.809,13.851,7.5,0,5.792-5.086,9.065-13.851,9.065-9.115,0-12.591-2.317-12.591-6.3,0-2.267,1.008-3.472,2.771-5.138a3.351,3.351,0,0,1-2.215-3.321,4.517,4.517,0,0,1,1.46-3.074c.906-.956,1.913-1.913,3.122-3.02a8.049,8.049,0,0,1-4.332-7.557c0-5.792,3.827-9.768,11.533-9.768a17.211,17.211,0,0,1,4.634.5h9.822v4.279l-4.634.353" transform="translate(-45.823 -9.451)" fill="#362701"/><g transform="translate(92.013 0.79)" clip-path="url(#a)"><path d="M165.649,9.754c-2.871,0-4.532-1.661-4.532-4.535S162.778.789,165.649.789c2.922,0,4.584,1.562,4.584,4.431S168.572,9.754,165.649,9.754Zm-6.5,30.269V36.044l2.568-.351c.705-.1.807-.253.807-1.01V19.877c0-.552-.151-.906-.655-1.056l-2.72-.958.554-4.078h10.426v20.9c0,.81.05.909.807,1.01l2.568.351v3.979H159.152" transform="translate(-159.064 -0.79)" fill="#362701"/></g><g transform="translate(105.902 5.541)" clip-path="url(#b)"><path d="M203.52,41.56a20.142,20.142,0,0,1-8.21,2.014c-5.993,0-8.258-2.416-8.258-8.11V22.271c0-.3,0-.5-.405-.5h-3.526V17.285c4.435-.5,6.2-2.722,6.75-8.211h4.786v7.153c0,.352,0,.5.4.5h7.1v5.037h-7.5V33.8c0,2.972.7,4.13,3.425,4.13a12.019,12.019,0,0,0,4.078-.8l1.361,4.433" transform="translate(-183.051 -9.031)" fill="#362701"/></g><g transform="translate(0 0.79)" clip-path="url(#c)"><path d="M51.748,24.883,28.72,1.858a3.4,3.4,0,0,0-4.8,0L19.135,6.639,25.2,12.706a4.033,4.033,0,0,1,5.109,5.141l5.846,5.848a4.036,4.036,0,1,1-2.421,2.279l-5.453-5.453V34.868a4.041,4.041,0,1,1-4.645.764,3.989,3.989,0,0,1,1.322-.881V20.27a3.989,3.989,0,0,1-1.322-.881,4.044,4.044,0,0,1-.873-4.42L16.784,8.987.994,24.777a3.4,3.4,0,0,0,0,4.8L24.023,52.609a3.4,3.4,0,0,0,4.8,0L51.748,29.69a3.4,3.4,0,0,0,0-4.806" transform="translate(0 -0.821)" fill="#f03c2e"/></g></g></svg>