<svg xmlns="http://www.w3.org/2000/svg" xmlns:xlink="http://www.w3.org/1999/xlink" width="183.898" height="57.8" viewBox="0 0 183.898 57.8"><defs><linearGradient id="a" x1="0.224" y1="0.867" x2="1.012" y2="0.183" gradientUnits="objectBoundingBox"><stop offset="0.214" stop-color="#0075c9"/><stop offset="0.707" stop-color="#80bc00"/><stop offset="1" stop-color="#fde021"/></linearGradient></defs><g transform="translate(-74 -197.2)"><path d="M123.926,211.565,99.2,197.285l-.169-.085-.169.085-24.554,14.2-.141.085L74,211.65v28.9l.169.085,24.723,14.281.169.085.169-.085,24.384-14.055.339-.2.169-.085V211.65ZM96.606,200.9l-6.04,10.471H78.459Zm-7.056,12.192L86.728,218l-8.495-4.911Zm-2.2,7.225L97.34,226.1l-9.991,5.757-3.33-5.786Zm-1.468-.847-2.822,4.911-5.673-9.821ZM76,215.629l6.04,10.471L76,236.57Zm7.027,12.192,2.822,4.911-8.495,4.911Zm3.7,6.378,2.822,4.911H78.233Zm-8.269,6.632H90.538l6.04,10.471Zm19.756,9.821-5.673-9.821h5.673Zm0-11.543H91.554l-3.33-5.786,9.991-5.786V239.11Zm0-14.506-9.991-5.786,3.33-5.786h6.661Zm0-13.265H92.542l5.673-9.821Zm14.055,8.128,8.495-4.911-5.673,9.821ZM114.1,226.1l-3.33,5.757-9.991-5.786,9.991-5.786Zm-2.709-8.1-2.822-4.911H119.89Zm8.269-6.661H107.585l-6.04-10.471Zm-19.756-9.821,5.673,9.821H99.908Zm0,11.571h6.66l3.33,5.786-9.991,5.786Zm0,14.506,9.991,5.786-3.33,5.757h-6.66Zm0,13.236h5.673l-5.673,9.821Zm1.637,10.471,6.04-10.471h12.079Zm7.027-12.192,2.822-4.911,8.495,4.911Zm3.7-6.407,2.822-4.911,5.673,9.821Zm9.85,3.867L116.08,226.1l6.04-10.471Z" transform="translate(0 0)" fill="url(#a)"/><path d="M275,329.2h11.825v1.072H276.214v8.918h9.6v1.1h-9.6v9.172H275Z" transform="translate(-144.273 -94.746)" fill="#1d1d1b"/><path d="M324.2,363.322a6.322,6.322,0,1,1,6.35,6.35,6.3,6.3,0,0,1-6.35-6.35m11.43,0a5.111,5.111,0,1,0-10.217,0,5.112,5.112,0,1,0,10.217,0" transform="translate(-179.587 -114.7)" fill="#1d1d1b"/><path d="M380.3,365.648V358h1.157v7.479c0,2.484,1.157,3.866,3.5,3.866a4.267,4.267,0,0,0,4.459-4.572V358h1.157v12.164h-1.157l.028-2.681a4.9,4.9,0,0,1-4.629,2.935c-2.709,0-4.516-1.778-4.516-4.77" transform="translate(-219.855 -115.418)" fill="#1d1d1b"/><path d="M427.9,357.282h1.157l-.028,2.709A4.94,4.94,0,0,1,433.686,357c2.709,0,4.516,1.806,4.516,4.826v7.592h-1.157v-7.394c0-2.512-1.157-3.979-3.5-3.979a4.238,4.238,0,0,0-4.459,4.572v6.8h-1.157V357.282Z" transform="translate(-254.021 -114.7)" fill="#1d1d1b"/><path d="M475.6,340.209a6.028,6.028,0,0,1,6.04-6.322,5.526,5.526,0,0,1,5.136,3.161V324.8h1.157v21.534h-1.157l.056-3.02a5.807,5.807,0,0,1-5.221,3.274,6.087,6.087,0,0,1-6.011-6.378m11.289,0a4.973,4.973,0,0,0-5.08-5.278c-3.02,0-4.939,2.258-4.939,5.278s1.919,5.306,4.939,5.306a5,5,0,0,0,5.08-5.306" transform="translate(-288.259 -91.588)" fill="#1d1d1b"/><path d="M539.149,361.8c0-2.738-1.242-3.782-3.246-3.782a4.421,4.421,0,0,0-3.979,2.088l-.818-.593A5.552,5.552,0,0,1,535.932,357c2.512,0,4.375,1.524,4.375,4.685v7.761h-1.157l.056-1.863A4.794,4.794,0,0,1,535,369.7c-2.766,0-4.6-1.3-4.6-3.725,0-2.4,2.117-3.556,4.459-3.556h4.29ZM535,363.35c-1.863,0-3.415.706-3.415,2.568s1.214,2.709,3.556,2.709c2.032,0,4.036-1.185,4.036-3.076v-2.2Z" transform="translate(-327.593 -114.7)" fill="#1d1d1b"/><path d="M579.019,356.008v-7.959H577.1v-.988h1.919V342.8h1.157v4.262h3.5v.988h-3.5v7.931c0,1.778.621,2.455,1.637,2.455a2.21,2.21,0,0,0,1.919-.9l.762.706a3.2,3.2,0,0,1-2.681,1.214c-1.552.028-2.794-.96-2.794-3.443" transform="translate(-361.113 -104.508)" fill="#1d1d1b"/><path d="M614.5,336.788a.988.988,0,0,1,1.976,0,.981.981,0,0,1-.988.988.964.964,0,0,1-.988-.988m.423,5.278h1.157v12.164h-1.157Z" transform="translate(-387.958 -99.484)" fill="#1d1d1b"/><path d="M632.5,363.322a6.322,6.322,0,1,1,6.35,6.35,6.3,6.3,0,0,1-6.35-6.35m11.458,0a5.111,5.111,0,1,0-10.216,0,5.112,5.112,0,1,0,10.216,0" transform="translate(-400.878 -114.7)" fill="#1d1d1b"/><path d="M689.1,357.282h1.157l-.028,2.709A4.94,4.94,0,0,1,694.886,357c2.709,0,4.516,1.806,4.516,4.826v7.592h-1.157v-7.394c0-2.512-1.157-3.979-3.5-3.979a4.238,4.238,0,0,0-4.459,4.572v6.8h-1.157V357.282Z" transform="translate(-441.504 -114.7)" fill="#1d1d1b"/><path d="M275,211.423a13.166,13.166,0,1,1,13.18,13.123A12.885,12.885,0,0,1,275,211.423m22.268,0c0-5.447-3.754-9.539-9.088-9.539s-9.116,4.092-9.116,9.539,3.782,9.539,9.116,9.539c5.334-.028,9.088-4.092,9.088-9.539" transform="translate(-144.273 -0.79)" fill="#1d1d1b"/><path d="M382.828,233.339h3.838l-.113,2.935A5.974,5.974,0,0,1,392.142,233c4.036,0,7.31,3.415,7.31,8.185s-3.3,8.269-7.394,8.269a5.835,5.835,0,0,1-5.419-3.02V257.1H382.8V233.339Zm12.7,7.818c0-2.85-1.722-4.8-4.459-4.8-2.766,0-4.572,1.947-4.572,4.8,0,2.963,1.806,4.911,4.572,4.911,2.766.028,4.459-1.919,4.459-4.911" transform="translate(-221.649 -25.696)" fill="#1d1d1b"/><path d="M465.262,246.308a6.319,6.319,0,0,0,4.459-1.693l2.2,2.342a8.838,8.838,0,0,1-6.632,2.568c-5.419,0-8.89-3.5-8.89-8.213a8.161,8.161,0,0,1,8.41-8.213c5.362,0,8.41,3.979,8.156,9.511h-12.7c.452,2.23,2.117,3.7,5,3.7m3.895-6.378a4.031,4.031,0,0,0-4.29-3.725,4.3,4.3,0,0,0-4.572,3.725Z" transform="translate(-274.477 -25.768)" fill="#1d1d1b"/><path d="M530,233.339h3.782l-.085,2.935A5.731,5.731,0,0,1,539.031,233c3.5,0,5.9,2.484,5.9,6.745v9.342h-3.782v-9.031c0-2.258-1.044-3.556-3.274-3.556a3.766,3.766,0,0,0-4.092,4.036v8.551H530Z" transform="translate(-327.306 -25.696)" fill="#1d1d1b"/><path d="M597.6,221.062l3.246-1.976c.9,1.609,1.947,2.738,3.838,2.738,2.145,0,3.528-1.016,3.528-3.979V199.5h3.979v18.373c0,5.08-3.02,7.479-7.31,7.479a7.591,7.591,0,0,1-7.281-4.29" transform="translate(-375.827 -1.651)" fill="#1d1d1b"/><path d="M663.6,219.312l3.274-1.806c1.185,1.976,2.738,3.556,5.842,3.556,2.6,0,4.431-1.411,4.431-3.5,0-2.2-1.5-3.189-4.29-4.431l-1.693-.762c-3.725-1.665-5.983-3.528-5.983-7.479,0-3.782,2.935-6.491,7.169-6.491a7.426,7.426,0,0,1,7.2,4.008l-3.1,1.919a4.238,4.238,0,0,0-4.092-2.484c-2.032,0-3.3,1.242-3.3,2.963,0,1.919,1.073,2.766,3.669,3.895l1.665.762c4.346,1.919,6.661,3.923,6.661,8.043,0,4.459-3.5,7.056-8.3,7.056-4.8.028-7.7-2.371-9.144-5.249" transform="translate(-423.2 -0.86)" fill="#1d1d1b"/></g></svg>