<svg xmlns="http://www.w3.org/2000/svg" width="171.152" height="44.556" viewBox="0 0 171.152 44.556"><g transform="translate(0 -0.002)"><g transform="translate(0 0.002)"><circle cx="4.335" cy="4.335" r="4.335" transform="translate(0 17.947)" fill="#ff6309"/><circle cx="4.335" cy="4.335" r="4.335" transform="translate(31.081 35.887)" fill="#ffb515"/><path d="M44.22,16.171a10.742,10.742,0,0,1,10.617,9.2h7.426A17.953,17.953,0,0,0,57.4,14.486a6.214,6.214,0,0,1-9.033-5.22,18.261,18.261,0,0,0-4.15-.476A18.048,18.048,0,0,0,36.51,10.5l3.718,6.44A10.669,10.669,0,0,1,44.22,16.171Z" transform="translate(-19.165 -4.615)" fill="#ff6309"/><path d="M54.835,50.1a10.722,10.722,0,0,1-14.611,8.435l-3.718,6.44a18.043,18.043,0,0,0,7.711,1.714,18.287,18.287,0,0,0,4.153-.477,6.214,6.214,0,0,1,9.035-5.225A17.956,17.956,0,0,0,62.26,50.1H54.835Z" transform="translate(-19.163 -26.299)" fill="#c90016"/><path d="M22.846,30.474a10.712,10.712,0,0,1,4.1-8.431L23.232,15.6a18.361,18.361,0,0,0-2.465,2.066,18.012,18.012,0,0,0-4.543,7.583,6.214,6.214,0,0,1,0,10.441,18.012,18.012,0,0,0,4.543,7.583,18.377,18.377,0,0,0,2.463,2.066L26.948,38.9A10.712,10.712,0,0,1,22.846,30.474Z" transform="translate(-8.517 -8.192)" fill="#ffb515"/><circle cx="4.335" cy="4.335" r="4.335" transform="translate(31.077)" fill="#c90016"/></g><g transform="translate(53.755 4.309)"><path d="M325.517,27.673a3.035,3.035,0,0,1,.647-2.126,2.2,2.2,0,0,1,1.71-.715,2.273,2.273,0,0,1,1.746.715,3.026,3.026,0,0,1,.664,2.126v6.189a12.6,12.6,0,0,0,.362,3.671,3.216,3.216,0,0,0,1.158,1.585,3.369,3.369,0,0,0,1.985.568,3.446,3.446,0,0,0,1.986-.552A3.323,3.323,0,0,0,337,37.481a12.662,12.662,0,0,0,.294-3.464V27.651a3.014,3.014,0,0,1,.641-2.109,2.185,2.185,0,0,1,1.7-.709,2.256,2.256,0,0,1,1.732.709,3.013,3.013,0,0,1,.659,2.109v5.126q0,4.911-.778,6.721a7.393,7.393,0,0,1-2.8,3.394,8.632,8.632,0,0,1-4.7,1.172,8.387,8.387,0,0,1-5.008-1.378,7.3,7.3,0,0,1-2.676-3.842,23.26,23.26,0,0,1-.552-6.2l0-4.966Z" transform="translate(-224.629 -17.344)"/><path d="M248.464,41.222a3.04,3.04,0,0,0,.647,2.127,2.2,2.2,0,0,0,1.711.714,2.272,2.272,0,0,0,1.746-.714,3.027,3.027,0,0,0,.663-2.127V35.033a12.622,12.622,0,0,1,.362-3.67,3.209,3.209,0,0,1,1.158-1.585,3.37,3.37,0,0,1,1.985-.569,3.451,3.451,0,0,1,1.986.552,3.319,3.319,0,0,1,1.227,1.654,12.706,12.706,0,0,1,.293,3.464v6.365a3.013,3.013,0,0,0,.642,2.11,2.179,2.179,0,0,0,1.7.708,2.254,2.254,0,0,0,1.733-.708,3.01,3.01,0,0,0,.658-2.11V36.119q0-4.911-.777-6.72A7.387,7.387,0,0,0,261.4,26a8.637,8.637,0,0,0-4.7-1.172,8.386,8.386,0,0,0-5.008,1.379,7.3,7.3,0,0,0-2.676,3.842,23.258,23.258,0,0,0-.552,6.2l0,4.966Z" transform="translate(-184.182 -17.344)"/><path d="M203.041,27.673a3.04,3.04,0,0,1,.646-2.126,2.2,2.2,0,0,1,1.712-.715,2.272,2.272,0,0,1,1.745.715,3.021,3.021,0,0,1,.663,2.126v6.189a12.578,12.578,0,0,0,.364,3.671,3.213,3.213,0,0,0,1.156,1.585,3.372,3.372,0,0,0,1.986.568,3.448,3.448,0,0,0,1.986-.552,3.317,3.317,0,0,0,1.226-1.653,12.7,12.7,0,0,0,.294-3.464V27.651a3.014,3.014,0,0,1,.641-2.109,2.184,2.184,0,0,1,1.7-.709,2.257,2.257,0,0,1,1.732.709,3,3,0,0,1,.658,2.109v5.126q0,4.911-.778,6.721a7.386,7.386,0,0,1-2.8,3.394,8.638,8.638,0,0,1-4.7,1.172,8.388,8.388,0,0,1-5.007-1.378,7.308,7.308,0,0,1-2.676-3.842,23.261,23.261,0,0,1-.552-6.2l0-4.966Z" transform="translate(-160.338 -17.344)"/><path d="M113.152,27.673a3.038,3.038,0,0,1,.646-2.126,2.2,2.2,0,0,1,1.711-.715,2.274,2.274,0,0,1,1.746.715,3.016,3.016,0,0,1,.663,2.1v6.211a12.609,12.609,0,0,0,.362,3.671,3.217,3.217,0,0,0,1.157,1.585,3.372,3.372,0,0,0,1.986.568,3.448,3.448,0,0,0,1.986-.552,3.32,3.32,0,0,0,1.226-1.653,12.659,12.659,0,0,0,.294-3.464V27.651a3.012,3.012,0,0,1,.642-2.109,2.183,2.183,0,0,1,1.7-.709,2.255,2.255,0,0,1,1.733.709,3,3,0,0,1,.658,2.109v5.126q0,4.911-.777,6.721a7.389,7.389,0,0,1-2.8,3.394,8.636,8.636,0,0,1-4.7,1.172,8.388,8.388,0,0,1-5.007-1.378,7.3,7.3,0,0,1-2.676-3.842,23.229,23.229,0,0,1-.553-6.2V27.673Z" transform="translate(-113.152 -17.344)"/><path d="M174.107,21.118q-.095-.219-.2-.429c.109.225.21.46.306.705q-.053-.146-.109-.276Zm-15.7,5.112.009-.281a.452.452,0,0,1-.009-.1v-12.7q0-1.167.053-1.822a2.792,2.792,0,0,1,.355-1.149,2.117,2.117,0,0,1,.815-.8,2.263,2.263,0,0,1,1.188-.318,2.393,2.393,0,0,1,1.666.69,2,2,0,0,1,.62,1.132,9.49,9.49,0,0,1,.142,1.875v4.873a9.324,9.324,0,0,1,4.01-1.087,6.5,6.5,0,0,1,4.057,1.172,7.024,7.024,0,0,1,1.705,1.544,7.921,7.921,0,0,1,.895,1.421q.1.209.2.429c.037.087.073.179.109.276a14.171,14.171,0,0,1,.027,9.463c-.043.128-.088.247-.135.358a8.752,8.752,0,0,1-.448.9,7.477,7.477,0,0,1-.428.666,7.047,7.047,0,0,1-1.921,1.832,8.635,8.635,0,0,1-4.7,1.172,8.388,8.388,0,0,1-5.007-1.378,7.3,7.3,0,0,1-2.676-3.842,17.29,17.29,0,0,1-.525-4.331Zm10.412,5.093a3.437,3.437,0,0,0,1.1-1.25.668.668,0,0,0,.1-.15,9.2,9.2,0,0,0,.051-7.345,3.545,3.545,0,0,0-1.248-1.565,3.792,3.792,0,0,0-2.184-.607,3.71,3.71,0,0,0-2.184.626,3.538,3.538,0,0,0-1.272,1.744,10.233,10.233,0,0,0-.376,2.756,13.291,13.291,0,0,0,.376,4.03,3.53,3.53,0,0,0,1.272,1.743,3.7,3.7,0,0,0,2.184.626,3.789,3.789,0,0,0,2.184-.607Z" transform="translate(-136.907 -9.069)"/><path d="M292.742,16.272h.533V13.318q0-1.189.052-1.856a2.917,2.917,0,0,1,.354-1.171,2.129,2.129,0,0,1,.816-.81,2.227,2.227,0,0,1,1.187-.324,2.369,2.369,0,0,1,1.666.7,2.05,2.05,0,0,1,.621,1.153,9.845,9.845,0,0,1,.141,1.909v3.351h1.772a2.184,2.184,0,0,1,1.559.5,1.6,1.6,0,0,1,.549,1.261,1.422,1.422,0,0,1-.78,1.387,4.866,4.866,0,0,1-2.2.4h-.9v9.042a16.825,16.825,0,0,0,.071,1.784,1.945,1.945,0,0,0,.426,1.009,1.486,1.486,0,0,0,1.133.378,6.252,6.252,0,0,0,1.153-.144,5.583,5.583,0,0,1,1.134-.162,1.4,1.4,0,0,1,1.045.486,1.573,1.573,0,0,1,.479,1.171,1.973,1.973,0,0,1-1.276,1.82,8.519,8.519,0,0,1-3.667.63,6.256,6.256,0,0,1-3.439-.774,3.63,3.63,0,0,1-1.541-2.144,15.121,15.121,0,0,1-.353-3.657V19.82h-.639a2.274,2.274,0,0,1-1.595-.5,1.655,1.655,0,0,1-.548-1.278,1.58,1.58,0,0,1,.567-1.261,2.5,2.5,0,0,1,1.683-.5Z" transform="translate(-206.244 -9.115)"/></g></g></svg>