<svg xmlns="http://www.w3.org/2000/svg" width="125.544" height="37.157" viewBox="0 0 125.544 37.157"><g transform="translate(8.356 7.85)"><path d="M43.056.994q-2.971,16.168-7.824,23.473-3.789,5.649-8.311,5.649a8.161,8.161,0,0,1-2.967-.724V26.8a14.05,14.05,0,0,0,2.023.129,4.925,4.925,0,0,0,3.409-1.166,4.258,4.258,0,0,0,1.549-3.191,21.412,21.412,0,0,0-1.2-4.967L24.4.977h4.772l3.831,12.434c.86,2.821,1.221,4.8,1.075,5.909A80.264,80.264,0,0,0,38.465.977h4.61M21.972,22.47H17.1C16.931,14.256,16.456,6.5,15.684-.743h-.043L8.239,22.47h-3.7L-2.832-.743h-.044C-3.421,6.2-3.765,13.964-3.908,22.47H-8.356q.43-15.535,2.149-29.122H-.168l7.013,21.4h.043l7.045-21.4h5.779Q21.606,9.273,21.949,22.47" transform="translate(0 -0.809)" fill="#00758f"/><path d="M221.739,21.678h-13.8V-7.444h4.643V18.106h9.155v3.571M187,15.866c-1.175-1.9-1.766-4.935-1.766-9.155q0-11.006,6.656-11.006a5.623,5.623,0,0,1,5.13,2.63c1.175,1.9,1.766,4.935,1.766,9.058q0,11.1-6.656,11.1A5.619,5.619,0,0,1,187,15.863m17.3,6.526-5.324-2.639a9.707,9.707,0,0,0,1.334-1.3q3.4-4.008,3.409-11.85,0-14.464-11.331-14.447a10.643,10.643,0,0,0-8.636,3.669c-2.269,2.675-3.409,6.623-3.409,11.818,0,5.13,1,8.863,3.013,11.266,1.831,2.156,4.61,3.237,8.311,3.237a13.274,13.274,0,0,0,3.8-.513l6.948,4.058,1.9-3.279m-25.973-8.766a7.672,7.672,0,0,1-2.711,6.071,10.63,10.63,0,0,1-7.272,2.37,14.666,14.666,0,0,1-8.279-2.721l1.247-2.5a14.181,14.181,0,0,0,6.233,1.724,6.593,6.593,0,0,0,4.123-1.162,3.972,3.972,0,0,0,1.581-3.234c0-1.73-1.2-3.208-3.409-4.448-2.039-1.12-6.1-3.474-6.1-3.474a6.978,6.978,0,0,1-3.312-6.2,7.256,7.256,0,0,1,2.474-5.714,9.292,9.292,0,0,1,6.4-2.182,13.234,13.234,0,0,1,7.37,2.159l-1.123,2.5a14.285,14.285,0,0,0-5.584-1.208A4.982,4.982,0,0,0,166.531-3.3a3.607,3.607,0,0,0-1.3,2.76c0,1.724,1.23,3.221,3.506,4.48,2.062,1.123,6.233,3.506,6.233,3.506,2.269,1.61,3.409,3.344,3.409,6.169" transform="translate(-113.752)" fill="#f29111"/><path d="M355.819,75.671h.769V72.707h1.006v-.6H354.77v.6h1.045Zm5.876,0h.727V72.1h-1.091l-.89,2.432-.967-2.432h-1.052v3.571h.688V72.954h.039l1.013,2.717h.523l1.013-2.717v2.717" transform="translate(-245.234 -53.994)" fill="#f29111"/></g></svg>