<svg xmlns="http://www.w3.org/2000/svg" width="174.872" height="41.157" viewBox="0 0 174.872 41.157"><g transform="translate(-0.5 -0.5)"><path d="M36.79,24.22c3.576,0,8.749-.737,8.749-4.99a4,4,0,0,0-.089-.977L43.321,9c-.492-2.035-.923-2.958-4.5-4.745C36.052,2.841,30.013.5,28.227.5,26.563.5,26.08,2.644,24.1,2.644c-1.909,0-3.327-1.6-5.113-1.6-1.715,0-2.832,1.169-3.7,3.573,0,0-2.4,6.78-2.712,7.763a1.838,1.838,0,0,0-.063.554c0,2.635,10.375,11.275,24.277,11.275m9.3-3.253a14.223,14.223,0,0,1,.494,2.9c0,4-4.5,6.222-10.412,6.222C22.8,30.082,11.1,22.25,11.1,17.074a5.273,5.273,0,0,1,.432-2.1C6.722,15.219.5,16.077.5,21.57c0,9,21.319,20.087,38.2,20.087C51.641,41.657,54.9,35.8,54.9,31.182c0-3.636-3.144-7.763-8.812-10.226" fill="#e00"/><path d="M72.569,43.767a14.223,14.223,0,0,1,.494,2.9c0,4-4.5,6.222-10.412,6.222-13.365.009-25.072-7.823-25.072-13a5.273,5.273,0,0,1,.432-2.1L39.058,35.2a1.838,1.838,0,0,0-.063.543c0,2.635,10.375,11.275,24.277,11.275,3.576,0,8.749-.737,8.749-4.99a4,4,0,0,0-.089-.977l.637,2.715Zm119.968,5.925c0,3.4,2.044,5.05,5.771,5.05a14.894,14.894,0,0,0,3.4-.48V50.321a7.1,7.1,0,0,1-2.2.332c-1.535,0-2.1-.48-2.1-1.924V42.689h4.447V38.631h-4.447V33.486l-4.859,1.052v4.093h-3.227v4.059h3.215v7Zm-15.148.091c0-1.052,1.055-1.563,2.647-1.563a12.324,12.324,0,0,1,2.887.36v2.044a6.148,6.148,0,0,1-3.038.752C178.323,51.375,177.389,50.775,177.389,49.783Zm1.486,5.019a7.441,7.441,0,0,0,4.39-1.232v.963h4.807V44.341c0-3.876-2.612-6-6.971-6a17.744,17.744,0,0,0-7.431,1.743l1.743,3.578a12.979,12.979,0,0,1,4.81-1.263c2,0,3.035.78,3.035,2.375v.78a14.156,14.156,0,0,0-3.607-.452c-4.09,0-6.554,1.715-6.554,4.782,0,2.8,2.224,4.927,5.771,4.927Zm-26.426-.26h5.17V46.3h8.657v8.237h5.185V33.492H166.3v8.086h-8.657V33.492h-5.17l-.02,21.05Zm-19.681-7.974a4.027,4.027,0,0,1,4.179-4.03,4.922,4.922,0,0,1,3.361,1.235v5.559a4.676,4.676,0,0,1-3.361,1.275,4.045,4.045,0,0,1-4.179-4.027Zm7.606,7.977h4.81V32.44l-4.859,1.052v5.982a8.21,8.21,0,1,0-4.207,15.268,7.18,7.18,0,0,0,4.267-1.38l-.011,1.183ZM118.3,42.318a3.517,3.517,0,0,1,3.335,2.524H115A3.32,3.32,0,0,1,118.3,42.318ZM110.105,46.6a8.348,8.348,0,0,0,8.654,8.237,9.55,9.55,0,0,0,6.645-2.407l-3.218-2.858a4.3,4.3,0,0,1-3.184,1.2,4.113,4.113,0,0,1-3.91-2.524h11.333V47.048c0-5.05-3.4-8.686-8.026-8.686a8.166,8.166,0,0,0-8.289,8.234Zm-8.383-8.694a2.392,2.392,0,1,1,0,4.75H96.609V37.91ZM91.433,54.533H96.6V46.868h3.936l3.97,7.666H110.3l-4.63-8.417a6.365,6.365,0,0,0,3.967-5.922c0-3.787-2.975-6.7-7.431-6.7H91.433V54.533Z" transform="translate(-26.482 -22.811)"/></g></svg>