<svg xmlns="http://www.w3.org/2000/svg" xmlns:xlink="http://www.w3.org/1999/xlink" width="157.289" height="41.157" viewBox="0 0 157.289 41.157"><defs><radialGradient id="a" cx="0.511" cy="0.523" r="1.309" gradientTransform="translate(-0.001 -0.005) scale(0.995 0.994)" gradientUnits="objectBoundingBox"><stop offset="0" stop-color="#f5660f"/><stop offset="0.5" stop-color="#f66e18" stop-opacity="0.612"/><stop offset="1" stop-color="#f77721" stop-opacity="0"/></radialGradient></defs><g transform="translate(-146.309 -371.791)"><g transform="translate(146.309 371.791)"><g transform="translate(0 0)"><path d="M24.974,20.2H56.316c2.781,0,5.019,1.642,5.019,3.681v33.8c0,2.039-2.239,3.681-5.019,3.681H24.974c-2.781,0-5.019-1.642-5.019-3.681v-33.8c0-2.039,2.239-3.681,5.019-3.681Z" transform="translate(-19.955 -20.198)" fill="#bb4803" fill-rule="evenodd"/><path d="M31.078,26.763H59.365c2.51,0,4.53,1.482,4.53,3.322v30.5c0,1.84-2.02,3.322-4.53,3.322H31.078c-2.51,0-4.53-1.482-4.53-3.322v-30.5C26.549,28.245,28.569,26.763,31.078,26.763Z" transform="translate(-24.613 -24.83)" fill-rule="evenodd" fill="url(#a)"/><path d="M30.235,26.137s31.863-.315,32.572-.079-1.577,2.918-4.259,3.155-22.871-.079-22.871-.079l-5.442-3Z" transform="translate(-26.213 -23.711)" fill="#fff" fill-rule="evenodd" opacity="0.449"/><path d="M49.255,48.853a7.875,7.875,0,0,1-8.09,7.64,7.653,7.653,0,1,1,0-15.28A7.875,7.875,0,0,1,49.255,48.853Z" transform="translate(-27.942 -32.99)" fill="#fff" fill-rule="evenodd"/><path d="M49.085,72.976a8.2,8.2,0,1,1-8.193-8.532A8.368,8.368,0,0,1,49.085,72.976Z" transform="translate(-27.712 -47.131)" fill="#fff" fill-rule="evenodd"/><path d="M88.4,48.865A8.2,8.2,0,1,1,80.2,40.5,8.284,8.284,0,0,1,88.4,48.865Z" transform="translate(-51.634 -32.556)" fill="#fff" fill-rule="evenodd"/><path d="M87.96,73.833A7.989,7.989,0,1,1,79.99,65.3,8.266,8.266,0,0,1,87.96,73.833Z" transform="translate(-51.648 -47.654)" fill="#fff" fill-rule="evenodd"/><path d="M52.177,62.094h16.8v9.937h-16.8Z" transform="translate(-39.569 -45.701)" fill="#fff" opacity="0.99"/><path d="M65.453,54.5a2.485,2.485,0,0,0-2.443,2.519c0,1.938-.279,2.345-.483,2.512s-1.295.552-3.7.552c-2.5,0-4.827-.273-7.211.662a6.115,6.115,0,0,0-3.078,2.678,9.037,9.037,0,0,0-.952,4.437,2.484,2.484,0,1,0,4.969,0,4.585,4.585,0,0,1,.338-2.056c.141-.258.184-.289.538-.428a23.1,23.1,0,0,1,5.4-.324c2.761,0,5-.171,6.839-1.67s2.312-3.865,2.312-6.363A2.485,2.485,0,0,0,65.453,54.5Z" transform="translate(-36.775 -41.077)" fill="#fb7922"/><path d="M89.465,73.884A2.485,2.485,0,0,0,87.022,76.4v2.919a2.484,2.484,0,1,0,4.969,0V76.4a2.485,2.485,0,0,0-2.526-2.519Z" transform="translate(-60.78 -52.878)" fill="#fb7922"/><path d="M53.506,56.8c0,.75-.005,2.852-.005,2.852s-2.1.007-2.956.007A2.861,2.861,0,1,1,53.506,56.8Z" transform="translate(-36.773 -40.738)" fill="#fb7922" opacity="0.99"/></g></g><g transform="translate(197.064 379.437)"><path d="M454.189,529.728h3.193l5.458,9.689,5.488-9.689h3.193l-7.062,12.517,7.533,13.547H468.8l-6.18-11.086L456.4,555.793h-3.207l7.842-13.914-6.841-12.151" transform="translate(-453.188 -529.728)"/><path d="M515.035,533.2l-4,12.971h8.009L515.035,533.2m-1.663-3.474h3.341l8.3,26.065h-3.064l-1.984-6.686h-9.818l-1.984,6.686h-3.107l8.315-26.065" transform="translate(-484.762 -529.728)"/><path d="M564.971,529.728h5.419l6.86,17.737,6.9-17.737h5.419v26.065h-3.547V532.906l-6.932,17.877h-3.655L568.5,532.906v22.887h-3.529V529.728" transform="translate(-521.234 -529.728)"/><path d="M642.956,532.624v9.794h3.866a4.282,4.282,0,0,0,3.318-1.274,6.184,6.184,0,0,0,0-7.245,4.282,4.282,0,0,0-3.318-1.274h-3.866m-3.075-2.9h6.941a7.726,7.726,0,0,1,5.769,1.99,7.88,7.88,0,0,1,1.964,5.8q0,3.858-1.964,5.831a7.767,7.767,0,0,1-5.769,1.973h-3.866v10.475h-3.075V529.727" transform="translate(-566.834 -529.726)"/><path d="M691.04,532.624v9.794h3.866a4.282,4.282,0,0,0,3.318-1.274,6.184,6.184,0,0,0,0-7.245,4.283,4.283,0,0,0-3.318-1.274H691.04m-3.075-2.9h6.941a7.726,7.726,0,0,1,5.769,1.99,7.88,7.88,0,0,1,1.964,5.8q0,3.858-1.964,5.831a7.767,7.767,0,0,1-5.769,1.973H691.04v10.475h-3.075V529.727" transform="translate(-596.104 -529.726)"/></g></g></svg>