<svg xmlns="http://www.w3.org/2000/svg" width="139.136" height="71.186" viewBox="0 0 139.136 71.186"><g transform="translate(-15.26 -4.116)"><path d="M77.827,42.364H70.643v.746c2.245,0,2.618.466,2.618,3.293v5.089c0,2.845-.373,3.368-2.618,3.368-1.721-.224-2.918-1.2-4.49-2.918l-1.87-2.021c2.469-.466,3.817-2.021,3.817-3.741,0-2.171-1.87-3.892-5.388-3.892H55.678v.746c2.245,0,2.618.466,2.618,3.293v5.089c0,2.845-.373,3.368-2.618,3.368v.746h7.933v-.746c-2.245,0-2.618-.524-2.618-3.368V49.995h.673l4.416,5.535H77.755c5.762,0,8.231-3.068,8.231-6.659.075-3.517-2.394-6.51-8.157-6.51Zm-16.761,6.51v-5.3h1.648a2.489,2.489,0,0,1,2.618,2.695,2.432,2.432,0,0,1-2.618,2.618Zm16.912,5.535h-.3c-1.421,0-1.648-.373-1.648-2.171V43.562h1.944c4.19,0,4.938,3.068,4.938,5.388,0,2.469-.824,5.462-4.938,5.462Zm-44.6-4.022,2.768-8.157c.824-2.394.466-3.068-2.1-3.068v-.824h7.556v.824c-2.544,0-3.141.6-4.116,3.517L32.923,56.357h-.6l-4.116-12.5-4.117,12.5h-.524L19.152,42.664c-.973-2.918-1.555-3.517-3.892-3.517v-.824h8.831v.824c-2.394,0-2.993.524-2.171,3.068l2.695,8.157,4.043-12.05H29.4Zm13.617,5.838c-4.416,0-8.007-3.219-8.007-7.183,0-3.892,3.576-7.183,8.007-7.183S55,45.077,55,49.042,51.425,56.225,46.994,56.225Zm0-13.169c-3.666,0-4.938,3.293-4.938,5.911s1.272,5.911,4.938,5.911c3.741,0,5.014-3.293,5.014-5.911C52.009,46.423,50.737,43.056,46.994,43.056ZM95.936,54.877V55.7h-9.2v-.824c2.695,0,3.141-.673,3.141-4.714V43.726c0-4.043-.466-4.64-3.141-4.64v-.824h8.306c4.116,0,6.437,2.1,6.437,4.938,0,2.768-2.32,4.938-6.437,4.938H92.792v2.1c0,3.965.466,4.64,3.141,4.64Zm-.9-15.116H92.792V46.72h2.245a3.132,3.132,0,0,0,3.293-3.442C98.33,41.39,97.282,39.761,95.037,39.761Zm33.9,12.2-.224.746c-.373,1.346-.824,1.8-3.666,1.8h-.524c-2.1,0-2.469-.466-2.469-3.293v-1.87c3.141,0,3.368.3,3.368,2.394h.746V45.744h-.746c0,2.1-.224,2.394-3.368,2.394V43.654h2.171c2.845,0,3.293.466,3.666,1.8l.224.746h.673l-.3-3.741H116.739V43.2c2.245,0,2.618.466,2.618,3.293v5.089c0,2.618-.3,3.293-2.1,3.368-1.648-.224-2.845-1.2-4.416-2.918l-1.87-2.021c2.469-.466,3.817-2.021,3.817-3.741,0-2.171-1.87-3.892-5.387-3.892h-7.034v.746c2.245,0,2.618.466,2.618,3.293v5.089c0,2.845-.373,3.368-2.618,3.368v.746H110.3v-.746c-2.245,0-2.618-.524-2.618-3.368V50.087h.673l4.416,5.535h16.463l.224-3.741h-.524ZM107.76,48.889V43.576h1.648a2.489,2.489,0,0,1,2.618,2.695,2.432,2.432,0,0,1-2.618,2.618Z" transform="translate(0 18.945)" fill="#00749a"/><path d="M95.4,54.935a5.857,5.857,0,0,1-3.576-1.346,3.76,3.76,0,0,0-.673,1.346H90.4V49.4h.824a4.433,4.433,0,0,0,4.49,4.19,2.082,2.082,0,0,0,2.32-1.944c0-1.048-.9-1.87-2.544-2.618L93.25,47.98a4.363,4.363,0,0,1-2.768-3.817c0-1.944,1.8-3.576,4.265-3.576a4.786,4.786,0,0,1,3.141,1.048,2.28,2.28,0,0,0,.524-1.048h.746V45.3h-.824c-.3-1.87-1.346-3.442-3.442-3.442-1.123,0-2.171.673-2.171,1.648,0,1.048.824,1.57,2.768,2.469l2.171,1.048a4.121,4.121,0,0,1,2.695,3.576,4.637,4.637,0,0,1-4.938,4.338Z" transform="translate(41.693 20.235)" fill="#00749a"/><path d="M95.4,54.935a5.857,5.857,0,0,1-3.576-1.346,3.76,3.76,0,0,0-.673,1.346H90.4V49.4h.824a4.433,4.433,0,0,0,4.49,4.19,2.082,2.082,0,0,0,2.32-1.944c0-1.048-.9-1.87-2.544-2.618L93.25,47.98a4.363,4.363,0,0,1-2.768-3.817c0-1.944,1.8-3.576,4.265-3.576a4.786,4.786,0,0,1,3.141,1.048,2.28,2.28,0,0,0,.524-1.048h.746V45.3h-.824c-.3-1.87-1.346-3.442-3.442-3.442-1.123,0-2.171.673-2.171,1.648,0,1.048.824,1.57,2.768,2.469l2.171,1.048a4.121,4.121,0,0,1,2.695,3.576,4.637,4.637,0,0,1-4.938,4.338Z" transform="translate(54.042 20.235)" fill="#00749a"/><path d="M48.008,28.012a20.389,20.389,0,0,0,11.515,18.44L49.827,19.7a20.773,20.773,0,0,0-1.819,8.312ZM82.38,26.971a10.567,10.567,0,0,0-1.732-5.628c-1.039-1.732-1.99-3.117-1.99-4.848a3.569,3.569,0,0,1,3.463-3.638h.26A20.214,20.214,0,0,0,68.542,7.492,20.84,20.84,0,0,0,51.4,16.755h1.3c2.164,0,5.454-.26,5.454-.26a.871.871,0,0,1,.155,1.732,19.354,19.354,0,0,1-2.337.155l7.463,22.164,4.5-13.418-3.2-8.744-2.164-.155a.869.869,0,0,1,.087-1.732s3.377.26,5.367.26c2.164,0,5.454-.26,5.454-.26a.871.871,0,0,1,.155,1.732,19.354,19.354,0,0,1-2.337.155l7.463,22.079,2.077-6.841c.866-2.858,1.558-4.848,1.558-6.667ZM68.873,29.831,62.727,47.665a21.367,21.367,0,0,0,5.8.866,22.189,22.189,0,0,0,6.841-1.126c-.087-.087-.087-.155-.155-.26Zm17.663-11.6.155,2.077a18.724,18.724,0,0,1-1.558,7.359L78.915,45.762A20.554,20.554,0,0,0,89.13,28.014a21.937,21.937,0,0,0-2.6-9.783ZM68.527,4.116a23.9,23.9,0,1,0,23.895,23.9A23.943,23.943,0,0,0,68.527,4.116Zm0,46.751A22.813,22.813,0,1,1,91.3,28.011,22.815,22.815,0,0,1,68.527,50.867Z" transform="translate(16.297 0)" fill="#00749a"/></g></svg>