<svg xmlns="http://www.w3.org/2000/svg" width="116.11" height="26.089" viewBox="0 0 116.11 26.089"><g transform="translate(-11.548 -10.169)"><path d="M14.048,32.728V13.663L33.11,32.728V13.663" fill="none" stroke="#090" stroke-linecap="round" stroke-linejoin="round" stroke-width="5"/><path d="M44.688,11.188,44,12.469l-5.312,9.656L38,23.344l.688,1.219L44,33.906l.719,1.281H58.625l.688-1.406,3.969-8,1.781-3.625H61.031l-10.156.031a2.5,2.5,0,1,0,0,5L57,27.156l-1.5,3.031H47.625l-3.906-6.875,3.938-7.125h8.377L57.987,20.2h5.031l-3.172-7.6-.687-1.406H44.688Z" fill="#090"/><path d="M70.014,11.156a2.6,2.6,0,0,0-2.469,2.531V20.2h5V13.688a2.6,2.6,0,0,0-2.531-2.531Z" fill="#090"/><path d="M14.048-32.728v19.065L33.11-32.728v19.065" transform="translate(111.139 0.048) rotate(180)" fill="none" stroke="#090" stroke-linecap="round" stroke-linejoin="round" stroke-width="5"/><g transform="translate(0.106 0.33)"><path d="M104.909,13.374l19.085,19.018" fill="none" stroke="#090" stroke-linecap="round" stroke-linejoin="round" stroke-width="5"/><path d="M104.909-13.374l19.085-19.018" transform="translate(228.926) rotate(180)" fill="none" stroke="#090" stroke-linecap="round" stroke-linejoin="round" stroke-width="5"/></g><path d="M70.014,35.2a2.6,2.6,0,0,1-2.469-2.531V22.208h5V32.673A2.6,2.6,0,0,1,70.014,35.2Z" fill="#090"/></g></svg>