<svg xmlns="http://www.w3.org/2000/svg" width="20" height="15" viewBox="0 0 20 15"><g transform="translate(0 0)"><path d="M1.92,59.444q.379.256,2.288,1.518t2.924,1.944q.112.075.474.325t.6.4q.24.154.58.346a3.444,3.444,0,0,0,.642.287,1.844,1.844,0,0,0,.558.1h.022a1.846,1.846,0,0,0,.558-.1,3.447,3.447,0,0,0,.642-.287q.34-.192.58-.346t.6-.4q.363-.251.474-.325l5.223-3.462a5.185,5.185,0,0,0,1.361-1.31A2.727,2.727,0,0,0,20,56.525a1.6,1.6,0,0,0-.53-1.2,1.767,1.767,0,0,0-1.255-.5H1.786a1.627,1.627,0,0,0-1.323.554A2.086,2.086,0,0,0,0,56.759a2.426,2.426,0,0,0,.614,1.454A5.428,5.428,0,0,0,1.92,59.444Z" transform="translate(0 -54.82)" fill="#f99d34"/><path d="M18.884,185.364q-3.66,2.365-5.558,3.676-.636.447-1.032.7a6.493,6.493,0,0,1-1.055.511,3.342,3.342,0,0,1-1.227.261H9.989a3.343,3.343,0,0,1-1.228-.261,6.5,6.5,0,0,1-1.055-.511q-.4-.25-1.032-.7-1.507-1.055-5.547-3.676A5.845,5.845,0,0,1,0,184.437V192.9a1.6,1.6,0,0,0,.525,1.2,1.761,1.761,0,0,0,1.261.5H18.214a1.761,1.761,0,0,0,1.261-.5A1.6,1.6,0,0,0,20,192.9v-8.459A6.08,6.08,0,0,1,18.884,185.364Z" transform="translate(0 -179.6)" fill="#f99d34"/></g></svg>