<svg xmlns="http://www.w3.org/2000/svg" width="61.342" height="61.427" viewBox="0 0 61.342 61.427"><g transform="translate(-26.75 485.214)"><path d="M54.61-484.8c-.186.027-.863.119-1.526.2a36.113,36.113,0,0,0-6.624,1.712,30.511,30.511,0,0,0-18.915,22.5A29.047,29.047,0,0,0,27-454.366a30.17,30.17,0,0,0,8.893,21.384,30.31,30.31,0,0,0,16.446,8.509,39.132,39.132,0,0,0,8.124.265A30.474,30.474,0,0,0,85.9-443.8a37.985,37.985,0,0,0,1.566-5.907,38.6,38.6,0,0,0,.2-7.765,30.383,30.383,0,0,0-14.734-23.163,30.621,30.621,0,0,0-12.345-4.115A53.274,53.274,0,0,0,54.61-484.8ZM66.768-478.9c.73.292,1.858.783,2.5,1.115,2.442,1.248,5.535,3.531,5.894,4.354a14.99,14.99,0,0,1,.836,6.584,17.825,17.825,0,0,1-.889,2.389c-1.646,3.717-1.646,5.522.013,8.747,1.407,2.761,3.106,4.991,4.208,5.509.889.425,1.367.292,2.376-.637a5.909,5.909,0,0,1,1.181-.863l.571-.292-.093.85a29.926,29.926,0,0,1-1.234,5.2,26.334,26.334,0,0,1-16.207,16.194c-1.009.345-1.354.425-1.354.292a16.643,16.643,0,0,1,2.018-3.73c.385-.518,1.779-2.031,3.093-3.385,2.655-2.721,3.013-3.239,3.093-4.593a2.416,2.416,0,0,0-.823-2.15,9.867,9.867,0,0,0-5.243-2.137c-2.057-.319-2.522-.757-3.863-3.557a7.79,7.79,0,0,0-1.951-2.947c-1.845-1.832-2.92-2.1-6.756-1.673a11.64,11.64,0,0,1-5.031-.186c-1.566-.544-2.19-1.46-2.509-3.624a5.234,5.234,0,0,0-1.473-3.292,4.734,4.734,0,0,1-.876-1.38,2.4,2.4,0,0,1,2.774-2.987,17.361,17.361,0,0,1,2.442,1.075,6.59,6.59,0,0,0,2.628,1.009,2.275,2.275,0,0,0,2.243-1.1c.5-.8.637-1.659.743-4.646.093-2.854.305-4.141.876-5.349.7-1.46,1.5-2.084,4.1-3.226a5.9,5.9,0,0,0,2.442-2l.5-.743,1.208.332C64.883-479.559,66.025-479.188,66.768-478.9ZM33.106-461a16.263,16.263,0,0,0,7.048,10.035c.478.319,1.872,1.128,3.119,1.792a23.232,23.232,0,0,1,2.535,1.5c.252.252.319.518.438,1.819.066.836.133,2.615.133,3.929,0,2.376,0,2.416.372,3.119.491.942,1.42,1.672,3.61,2.841s3.305,2.057,3.77,3.013a7.592,7.592,0,0,1,.743,3.4v1.128l-.823-.093a26.761,26.761,0,0,1-8.137-2.469,24.744,24.744,0,0,1-7.314-5.323,26.13,26.13,0,0,1-6.916-13.194,18.283,18.283,0,0,1-.372-4.845,20.5,20.5,0,0,1,.889-7.168C32.681-463.233,32.588-463.272,33.106-461Z" stroke="darkorange" fill="darkorange" stroke-width="0.5"/></g></svg>