<svg xmlns="http://www.w3.org/2000/svg" width="18" height="18" viewBox="0 0 17.387 18"><g transform="translate(0 0)"><path d="M17.791,5.292a6.779,6.779,0,0,0-.4-2.184,4.41,4.41,0,0,0-1.006-1.6A4.269,4.269,0,0,0,14.843.475a6.183,6.183,0,0,0-2.11-.418C11.8.011,11.506,0,9.145,0S6.489.011,5.561.053a6.169,6.169,0,0,0-2.11.418A4.232,4.232,0,0,0,1.909,1.512a4.45,4.45,0,0,0-1,1.593A6.8,6.8,0,0,0,.5,5.289C.459,6.252.449,6.558.449,9s.01,2.75.051,3.71A6.779,6.779,0,0,0,.9,14.9a4.456,4.456,0,0,0,1.005,1.6,4.269,4.269,0,0,0,1.539,1.037,6.184,6.184,0,0,0,2.11.418c.927.042,1.223.053,3.584.053s2.657-.01,3.584-.053a6.165,6.165,0,0,0,2.11-.418A4.529,4.529,0,0,0,17.38,14.9a6.8,6.8,0,0,0,.4-2.184c.041-.96.051-1.266.051-3.71s0-2.75-.044-3.71Zm-1.566,7.349a5.085,5.085,0,0,1-.3,1.67,2.937,2.937,0,0,1-1.651,1.709,4.643,4.643,0,0,1-1.614.309c-.917.042-1.192.053-3.513.053s-2.6-.01-3.513-.053a4.624,4.624,0,0,1-1.614-.309,2.669,2.669,0,0,1-1-.672,2.81,2.81,0,0,1-.649-1.034,5.1,5.1,0,0,1-.3-1.67c-.041-.949-.051-1.234-.051-3.636s.01-2.69.051-3.636a5.082,5.082,0,0,1,.3-1.67,2.747,2.747,0,0,1,.652-1.034,2.692,2.692,0,0,1,1-.672A4.646,4.646,0,0,1,5.64,1.688c.917-.042,1.192-.053,3.513-.053s2.6.011,3.513.053A4.626,4.626,0,0,1,14.279,2a2.667,2.667,0,0,1,1,.672A2.81,2.81,0,0,1,15.926,3.7a5.105,5.105,0,0,1,.3,1.67c.041.949.051,1.234.051,3.636s-.01,2.683-.051,3.632Zm0,0" transform="translate(-0.448 0)" fill="#fff"/><path d="M129.416,124.5a4.783,4.783,0,1,0,4.467,4.772A4.628,4.628,0,0,0,129.416,124.5Zm0,7.868a3.1,3.1,0,1,1,2.9-3.1A3,3,0,0,1,129.416,132.368Zm0,0" transform="translate(-120.719 -120.27)" fill="#fff"/><path d="M364.536,89.645a1.043,1.043,0,1,1-1.043-1.043A1.043,1.043,0,0,1,364.536,89.645Zm0,0" transform="translate(-350.152 -85.472)" fill="#fff"/></g></svg>