<svg xmlns="http://www.w3.org/2000/svg" width="40" height="40" viewBox="0 0 41.03 40"><g transform="translate(-4.558 -0.23)"><path d="M44.618,21.645l-9.325,9.329a3.472,3.472,0,0,1-5.356-4.32l-4.108-4.108-3.335,3.339a3.581,3.581,0,0,1-1.019,2.972L10.728,39.171a3.615,3.615,0,1,1-5.112-5.112L16.359,23.744a3.623,3.623,0,0,1,3.94-.785l2.971-2.971-4.106-4.107a3.472,3.472,0,0,1-4.321-5.354L24.169,1.2A3.422,3.422,0,0,1,29,1.263a3.447,3.447,0,0,1,.521,4.257L40.3,16.3a3.47,3.47,0,0,1,4.32,5.349Z" transform="translate(0 0)" fill="#f99d34"/></g></svg>