<svg xmlns="http://www.w3.org/2000/svg" width="17" height="17" viewBox="0 0 17.037 17"><g transform="translate(0 0)"><path d="M8.622,99.73H5.2a.275.275,0,0,0-.275.275v10.988a.275.275,0,0,0,.275.275h3.42a.275.275,0,0,0,.275-.275V100A.275.275,0,0,0,8.622,99.73Z" transform="translate(-4.656 -94.268)" fill="#fff"/><path d="M2.257.341A2.255,2.255,0,1,0,4.512,2.6,2.258,2.258,0,0,0,2.257.341Z" transform="translate(0 -0.341)" fill="#fff"/><path d="M113.006,94.761A4.017,4.017,0,0,0,110,96.023v-.714a.275.275,0,0,0-.275-.275h-3.276a.275.275,0,0,0-.275.275V106.3a.275.275,0,0,0,.275.275h3.413a.275.275,0,0,0,.275-.275V100.86c0-1.832.5-2.546,1.775-2.546,1.391,0,1.5,1.144,1.5,2.64V106.3a.275.275,0,0,0,.275.275H117.1a.275.275,0,0,0,.275-.275V100.27C117.378,97.546,116.859,94.761,113.006,94.761Z" transform="translate(-100.341 -89.572)" fill="#fff"/></g></svg>