<svg xmlns="http://www.w3.org/2000/svg" width="33" height="40" viewBox="0 0 32.648 40"><path d="M31.92,33.823a1.2,1.2,0,0,0,1.728-1.059V2.177A1.2,1.2,0,0,0,31.92,1.118c-1.312.965-2.518,1.953-3.685,2.911-4.11,3.365-7.718,6.322-13.6,6.383H6.761C3.573,10.412,1,13.565,1,17.471s2.573,7.059,5.761,7.059h7.682c6,0,9.641,2.983,13.793,6.386C29.4,31.87,30.61,32.859,31.92,33.823ZM17.164,41H14.847a1.959,1.959,0,0,1-1.805-1.576L8.816,28.435h8.348a2.17,2.17,0,0,1,1.92,2.353v7.859A2.176,2.176,0,0,1,17.164,41Z" transform="translate(-1 -1)" fill="#f99d34"/></svg>