<svg id="Layer_1" data-name="Layer 1" xmlns="http://www.w3.org/2000/svg" viewBox="0 0 112.24 69.28" width="95" height="70"><defs><style>.cls-1{fill:#1f3466;}.cls-2{fill:#f99d36;}</style></defs><path class="cls-1" d="M91.84,93.61l6.22-17.06h6.37l6.23,17.06h-5.8l-.72-2.41h-6l-.72,2.41Zm7.46-6.23H103l-.82-2.72c-.06-.2-.14-.44-.22-.72s-.17-.58-.25-.9-.16-.62-.25-.93-.15-.57-.22-.8h-.2c-.06.3-.15.64-.26,1s-.22.77-.33,1.17-.23.79-.35,1.16Z" transform="translate(-91.84 -37.99)"/><path class="cls-1" d="M111.71,93.61V76.55h7.64l1.56,6c.06.21.16.57.28,1.06s.26,1,.4,1.62.27,1.11.38,1.61h.2l.31-1.3c.13-.51.25-1,.39-1.55s.24-1,.34-1.44l1.57-6h7.36V93.61h-5.23V87.46c0-.66,0-1.35,0-2s0-1.37,0-2,0-1.15,0-1.57h-.2q-.08.5-.21,1.17c-.09.45-.19.89-.29,1.33s-.2.82-.29,1.15l-2.21,8.11h-4.09l-2.23-8.11c-.09-.33-.18-.72-.29-1.15s-.2-.88-.28-1.33-.16-.83-.23-1.14h-.19c0,.41,0,.93,0,1.56s0,1.29,0,2,0,1.38,0,2v6.15Z" transform="translate(-91.84 -37.99)"/><path class="cls-1" d="M142.52,93.9a18.88,18.88,0,0,1-3.28-.26,8.46,8.46,0,0,1-2.68-.89A4.64,4.64,0,0,1,134.75,91a5.55,5.55,0,0,1-.66-2.84V88a.63.63,0,0,1,0-.19h5.18a.62.62,0,0,0,0,.19v.16a1.71,1.71,0,0,0,.34,1.14,1.76,1.76,0,0,0,1,.53A6.86,6.86,0,0,0,142,90l.63,0a3.5,3.5,0,0,0,.65-.07,2.25,2.25,0,0,0,.57-.19,1,1,0,0,0,.4-.33.9.9,0,0,0,.15-.53.85.85,0,0,0-.42-.75,4.12,4.12,0,0,0-1.14-.47c-.48-.13-1-.26-1.61-.37S140,87,139.4,86.85a13.05,13.05,0,0,1-1.86-.61,6.63,6.63,0,0,1-1.61-.95,4.22,4.22,0,0,1-1.14-1.46,4.92,4.92,0,0,1-.42-2.12,4.62,4.62,0,0,1,2.32-4.22,8,8,0,0,1,2.45-.94,13.55,13.55,0,0,1,2.89-.3,12.74,12.74,0,0,1,2.89.31,8,8,0,0,1,2.39,1A4.92,4.92,0,0,1,149,79.15a4.67,4.67,0,0,1,.61,2.36v.3h-5.13v-.1a1.71,1.71,0,0,0-.22-.85,1.6,1.6,0,0,0-.71-.64,2.71,2.71,0,0,0-1.27-.25,4.53,4.53,0,0,0-1.26.15,1.62,1.62,0,0,0-.75.41.78.78,0,0,0-.25.56.89.89,0,0,0,.42.76,3.57,3.57,0,0,0,1.14.5c.48.13,1,.26,1.61.37l1.86.39a12.15,12.15,0,0,1,1.86.55,6.65,6.65,0,0,1,1.61.91,4.08,4.08,0,0,1,1.14,1.37,4.27,4.27,0,0,1,.43,2,5.57,5.57,0,0,1-1,3.42,5.66,5.66,0,0,1-2.68,1.93A11.54,11.54,0,0,1,142.52,93.9Z" transform="translate(-91.84 -37.99)"/><path class="cls-1" d="M159.85,93.9a10.78,10.78,0,0,1-4.87-1,6.57,6.57,0,0,1-3-3,10.64,10.64,0,0,1-1-4.87q0-4.36,2.24-6.6t6.61-2.23a10.55,10.55,0,0,1,4.33.83A6.4,6.4,0,0,1,167,79.55a7.44,7.44,0,0,1,1,4h-5.23a3.92,3.92,0,0,0-.35-1.71,2.59,2.59,0,0,0-1-1.11,3,3,0,0,0-1.64-.4,3.24,3.24,0,0,0-1.88.5,2.75,2.75,0,0,0-1,1.39,5.88,5.88,0,0,0-.33,2v1.59a5.7,5.7,0,0,0,.34,2.06,2.87,2.87,0,0,0,1,1.39,3,3,0,0,0,1.81.49,3.8,3.8,0,0,0,1.79-.37,2.48,2.48,0,0,0,1.07-1.08,3.64,3.64,0,0,0,.36-1.67h5.06a7.57,7.57,0,0,1-1,3.94,6,6,0,0,1-2.8,2.44A10.6,10.6,0,0,1,159.85,93.9Z" transform="translate(-91.84 -37.99)"/><path class="cls-1" d="M170.08,93.61V76.55h14.75v4.09h-9.28V83h7.94v3.92h-7.94v2.61H185v4.09Z" transform="translate(-91.84 -37.99)"/><path class="cls-1" d="M187.09,93.61V76.55h4.67l5.3,6.12q.23.26.6.72c.24.32.5.63.75,1s.45.58.59.78l.12,0c0-.47,0-.92,0-1.38V76.55h5V93.61h-4.64l-6-6.82a11.31,11.31,0,0,1-.72-.91l-.57-.78-.13.05c0,.32,0,.63,0,.94v7.52Z" transform="translate(-91.84 -37.99)"/><path class="cls-2" d="M148.18,38,125.75,70.26h44.86ZM139.8,64.31l8.38-12.05,8.38,12.05H139.8Z" transform="translate(-91.84 -37.99)"/><path class="cls-2" d="M96.57,107.28a4.92,4.92,0,0,1-2.19-.45,3,3,0,0,1-1.39-1.4,5.47,5.47,0,0,1-.47-2.41,4.33,4.33,0,0,1,1.06-3.21,4.08,4.08,0,0,1,3-1,4.77,4.77,0,0,1,1.9.36,3,3,0,0,1,1.33,1.08,3.19,3.19,0,0,1,.48,1.81h-1.8a1.93,1.93,0,0,0-.23-1,1.55,1.55,0,0,0-.66-.61,2.25,2.25,0,0,0-1-.21,2.44,2.44,0,0,0-1.27.3,1.82,1.82,0,0,0-.73.88,3.8,3.8,0,0,0-.23,1.43v.37a3.77,3.77,0,0,0,.24,1.44,1.81,1.81,0,0,0,.72.88,2.38,2.38,0,0,0,1.26.29,2.41,2.41,0,0,0,1-.2,1.53,1.53,0,0,0,.68-.6,1.84,1.84,0,0,0,.24-1h1.73a3.27,3.27,0,0,1-.47,1.81,2.85,2.85,0,0,1-1.32,1.07A4.83,4.83,0,0,1,96.57,107.28Z" transform="translate(-91.84 -37.99)"/><path class="cls-2" d="M109.14,107.28a5.09,5.09,0,0,1-2.26-.47,3.21,3.21,0,0,1-1.45-1.42,5,5,0,0,1-.5-2.37,5,5,0,0,1,.5-2.4,3.27,3.27,0,0,1,1.45-1.4,5.81,5.81,0,0,1,4.53,0,3.27,3.27,0,0,1,1.45,1.4,5.15,5.15,0,0,1,.5,2.4,5.07,5.07,0,0,1-.5,2.37,3.21,3.21,0,0,1-1.45,1.42A5.08,5.08,0,0,1,109.14,107.28Zm0-1.47a3,3,0,0,0,1-.16,1.85,1.85,0,0,0,.74-.51,2.19,2.19,0,0,0,.46-.82,3.71,3.71,0,0,0,.16-1.11v-.37a3.85,3.85,0,0,0-.16-1.13,2.11,2.11,0,0,0-.46-.82,1.83,1.83,0,0,0-.74-.5,3,3,0,0,0-1-.17,2.87,2.87,0,0,0-1,.17,1.87,1.87,0,0,0-.75.5,2.1,2.1,0,0,0-.45.82,3.87,3.87,0,0,0-.15,1.13v.37a3.73,3.73,0,0,0,.15,1.11,2.17,2.17,0,0,0,.45.82,1.89,1.89,0,0,0,.75.51A2.88,2.88,0,0,0,109.14,105.81Z" transform="translate(-91.84 -37.99)"/><path class="cls-2" d="M118.43,107.13V98.9h1.64l3.31,4.44.18.24.21.29.13.23H124V98.9h1.69v8.23H124l-3.39-4.54-.25-.38c-.09-.13-.15-.24-.19-.31h-.06v5.23Z" transform="translate(-91.84 -37.99)"/><path class="cls-2" d="M134.28,107.28a6.06,6.06,0,0,1-1.37-.15,3.56,3.56,0,0,1-1.15-.46,2.38,2.38,0,0,1-.78-.8,2.32,2.32,0,0,1-.28-1.18v-.13a.28.28,0,0,1,0-.1h1.78a.22.22,0,0,0,0,.09v.11a1,1,0,0,0,.21.65,1.22,1.22,0,0,0,.62.4,3.28,3.28,0,0,0,.94.13,5.54,5.54,0,0,0,.62,0,2.8,2.8,0,0,0,.48-.12,1.62,1.62,0,0,0,.35-.19.67.67,0,0,0,.2-.25.72.72,0,0,0,.07-.33.69.69,0,0,0-.21-.52,1.55,1.55,0,0,0-.58-.35,6.57,6.57,0,0,0-.82-.27l-.93-.24a8.62,8.62,0,0,1-.94-.31,4.25,4.25,0,0,1-.82-.45,1.89,1.89,0,0,1-.57-.68,2,2,0,0,1-.22-1,2.11,2.11,0,0,1,.26-1.06,2,2,0,0,1,.73-.73A3.48,3.48,0,0,1,133,98.9a5.54,5.54,0,0,1,1.33-.14,5.21,5.21,0,0,1,1.27.14,3.09,3.09,0,0,1,1,.43,2.09,2.09,0,0,1,1,1.84v.14h-1.74v-.09a.81.81,0,0,0-.2-.55,1.08,1.08,0,0,0-.54-.36,2.21,2.21,0,0,0-.81-.14,3.5,3.5,0,0,0-.86.1,1.25,1.25,0,0,0-.54.28.63.63,0,0,0-.19.44.59.59,0,0,0,.21.47,1.88,1.88,0,0,0,.58.33,6.74,6.74,0,0,0,.82.24l.94.24a9.25,9.25,0,0,1,.93.32,3.39,3.39,0,0,1,.82.45,2.16,2.16,0,0,1,.58.66,2,2,0,0,1,.21,1,2.39,2.39,0,0,1-.45,1.52,2.53,2.53,0,0,1-1.25.84A5.6,5.6,0,0,1,134.28,107.28Z" transform="translate(-91.84 -37.99)"/><path class="cls-2" d="M146.35,107.28a4.77,4.77,0,0,1-1.94-.36,2.64,2.64,0,0,1-1.24-1.09,3.43,3.43,0,0,1-.43-1.8V98.9h1.8V104a1.87,1.87,0,0,0,.47,1.36,2.16,2.16,0,0,0,2.69,0,1.83,1.83,0,0,0,.48-1.36V98.9H150V104a3.43,3.43,0,0,1-.44,1.8,2.59,2.59,0,0,1-1.24,1.09A4.78,4.78,0,0,1,146.35,107.28Z" transform="translate(-91.84 -37.99)"/><path class="cls-2" d="M155.36,107.13V98.9h1.79v6.71h4.15v1.52Z" transform="translate(-91.84 -37.99)"/><path class="cls-2" d="M167,107.13V100.4H164.4V98.9h7.09v1.5h-2.65v6.73Z" transform="translate(-91.84 -37.99)"/><path class="cls-2" d="M176.24,107.13V98.9H178v8.23Z" transform="translate(-91.84 -37.99)"/><path class="cls-2" d="M183.46,107.13V98.9h1.65l3.31,4.44.18.24c.07.1.14.19.2.29a1,1,0,0,1,.13.23H189V98.9h1.69v8.23H189l-3.38-4.54-.25-.38-.2-.31h-.05v5.23Z" transform="translate(-91.84 -37.99)"/><path class="cls-2" d="M199.84,107.28a4.07,4.07,0,0,1-3-1,4.36,4.36,0,0,1-1-3.22,5,5,0,0,1,.5-2.4,3.24,3.24,0,0,1,1.46-1.4,5.26,5.26,0,0,1,2.31-.46,6.13,6.13,0,0,1,1.51.18,3.84,3.84,0,0,1,1.25.55,2.54,2.54,0,0,1,1.16,2.26h-1.81a1.31,1.31,0,0,0-.61-1.14,2,2,0,0,0-.66-.29,2.88,2.88,0,0,0-.78-.1,3.53,3.53,0,0,0-1.09.16,1.91,1.91,0,0,0-.78.5,2.11,2.11,0,0,0-.46.82,3.92,3.92,0,0,0-.16,1.14v.36a3.45,3.45,0,0,0,.27,1.47,1.75,1.75,0,0,0,.79.86,2.73,2.73,0,0,0,1.31.28,3.1,3.1,0,0,0,1.14-.19,1.8,1.8,0,0,0,.78-.57,1.49,1.49,0,0,0,.29-.92v-.08h-2.46v-1.37H204v4.45h-1.17l-.16-.88a3.74,3.74,0,0,1-.77.57,3.49,3.49,0,0,1-.92.34A4.9,4.9,0,0,1,199.84,107.28Z" transform="translate(-91.84 -37.99)"/></svg>