<svg xmlns="http://www.w3.org/2000/svg" width="119.294" height="70.237" viewBox="0 0 119.294 70.237"><g transform="translate(-0.01)"><g transform="translate(0.01)"><path d="M216.008,53.252l-15.4-20.692-5.6,8.239,8.675,12.445Z" transform="translate(-135.923 -22.694)" fill="#ff7c00" fill-rule="evenodd"/><path d="M147.153,7.569,141.453,0,120.67,30.57h11.351l15.132-23Z" transform="translate(-84.109)" fill="#ff7c00" fill-rule="evenodd"/><path d="M.02,146.332l6.751-18.5h6.912l6.751,18.5H14.14l-.779-2.609H6.88L6.1,146.332H.023Zm8.1-6.751h4.033l-.888-2.957c-.073-.215-.152-.476-.242-.779s-.179-.627-.27-.97-.179-.676-.27-1.009-.17-.624-.242-.876h-.215c-.073.324-.167.691-.282,1.1s-.236.839-.364,1.279-.251.858-.376,1.251l-.888,2.957Z" transform="translate(-0.017 -89.096)" fill="#3c0073"/><path d="M69.652,146.332v-18.5h8.281l1.694,6.509c.073.233.176.618.309,1.157s.279,1.121.43,1.748.291,1.209.415,1.748H81c.091-.394.2-.864.336-1.412s.273-1.106.415-1.682.27-1.094.376-1.56l1.694-6.509h7.987v18.5H86.13v-6.669q0-1.077.015-2.218t.027-2.167c.009-.682.012-1.245.012-1.694h-.215c-.055.361-.13.779-.23,1.264s-.2.964-.309,1.439-.215.891-.321,1.251l-2.394,8.793H78.276l-2.421-8.793c-.091-.361-.191-.776-.309-1.251s-.218-.954-.309-1.439-.17-.9-.242-1.236h-.215c.018.448.036,1.012.055,1.694s.03,1.4.039,2.151.012,1.488.012,2.206v6.669H69.64Z" transform="translate(-48.542 -89.096)" fill="#3c0073"/><path d="M157.275,145.9a21.241,21.241,0,0,1-3.563-.282,9.243,9.243,0,0,1-2.906-.97,5.039,5.039,0,0,1-1.964-1.909,6.035,6.035,0,0,1-.712-3.079v-.148a.834.834,0,0,1,.027-.2h5.621a.833.833,0,0,0-.027.2v.173a1.811,1.811,0,0,0,.376,1.236,1.9,1.9,0,0,0,1.064.579,7.27,7.27,0,0,0,1.545.148c.215,0,.442-.006.685-.012a4.338,4.338,0,0,0,.7-.082,2.6,2.6,0,0,0,.618-.2,1.124,1.124,0,0,0,.442-.364.989.989,0,0,0,.161-.579.91.91,0,0,0-.458-.806,4.573,4.573,0,0,0-1.236-.512c-.521-.142-1.1-.279-1.748-.4s-1.318-.273-2.018-.442a13.747,13.747,0,0,1-2.015-.658,7.089,7.089,0,0,1-1.748-1.036,4.534,4.534,0,0,1-1.236-1.588,5.963,5.963,0,0,1,.215-5.042,5.2,5.2,0,0,1,1.842-1.83,8.641,8.641,0,0,1,2.663-1.021,14.784,14.784,0,0,1,3.133-.321,13.99,13.99,0,0,1,3.133.336,8.484,8.484,0,0,1,2.594,1.036,5.265,5.265,0,0,1,1.776,1.776,5.065,5.065,0,0,1,.673,2.554v.321h-5.566v-.106a1.815,1.815,0,0,0-.242-.915,1.788,1.788,0,0,0-.767-.7,3.05,3.05,0,0,0-1.385-.27,4.944,4.944,0,0,0-1.357.161,1.812,1.812,0,0,0-.821.442.871.871,0,0,0-.27.606.975.975,0,0,0,.458.833,4.038,4.038,0,0,0,1.236.539c.521.142,1.1.279,1.748.4s1.318.264,2.018.415a13.261,13.261,0,0,1,2.015.606,6.929,6.929,0,0,1,1.748.982,4.478,4.478,0,0,1,1.236,1.494,4.738,4.738,0,0,1,.458,2.179,5.663,5.663,0,0,1-3.966,5.8,12.37,12.37,0,0,1-4.182.661Z" transform="translate(-103.248 -88.344)" fill="#3c0073"/><path d="M216.919,145.907a11.709,11.709,0,0,1-5.284-1.076,7.143,7.143,0,0,1-3.227-3.215,11.585,11.585,0,0,1-1.088-5.284q0-4.731,2.433-7.154t7.166-2.418a11.344,11.344,0,0,1,4.691.9,6.869,6.869,0,0,1,3.106,2.676,8.1,8.1,0,0,1,1.1,4.354h-5.672a4.209,4.209,0,0,0-.376-1.854,2.775,2.775,0,0,0-1.088-1.209,3.4,3.4,0,0,0-1.788-.43,3.455,3.455,0,0,0-2.03.539,3.033,3.033,0,0,0-1.115,1.506,6.558,6.558,0,0,0-.348,2.233V137.2a6.333,6.333,0,0,0,.364,2.233,3.148,3.148,0,0,0,1.118,1.506,3.281,3.281,0,0,0,1.963.539,4.171,4.171,0,0,0,1.951-.4,2.627,2.627,0,0,0,1.154-1.17,3.949,3.949,0,0,0,.391-1.815h5.484a8.167,8.167,0,0,1-1.048,4.275,6.609,6.609,0,0,1-3.039,2.648,11.632,11.632,0,0,1-4.815.9Z" transform="translate(-144.503 -88.351)" fill="#3c0073"/><path d="M274.15,146.332v-18.5h16v4.436H280.092v2.554H288.7v4.251h-8.605v2.821h10.245v4.439Z" transform="translate(-191.083 -89.096)" fill="#3c0073"/><path d="M332.89,146.332v-18.5h5.057l5.754,6.642c.161.179.376.439.645.779l.821,1.036c.276.348.488.63.63.848l.133-.055c-.018-.5-.027-1-.027-1.494V127.83h5.406v18.5h-5.027l-6.481-7.4c-.3-.361-.564-.685-.779-.982s-.421-.579-.618-.848l-.133.055c.018.342.027.682.027,1.021v8.148h-5.406Z" transform="translate(-232.025 -89.096)" fill="#3c0073"/><path d="M3.5,214.9a4.242,4.242,0,0,1-1.891-.388,2.589,2.589,0,0,1-1.194-1.206,4.633,4.633,0,0,1-.409-2.079,3.746,3.746,0,0,1,.915-2.766,3.516,3.516,0,0,1,2.582-.9,4.12,4.12,0,0,1,1.633.309,2.546,2.546,0,0,1,1.142.93,2.735,2.735,0,0,1,.418,1.56H5.149a1.591,1.591,0,0,0-.2-.836,1.3,1.3,0,0,0-.57-.521,1.894,1.894,0,0,0-.851-.182,2.084,2.084,0,0,0-1.091.258,1.525,1.525,0,0,0-.63.761,3.3,3.3,0,0,0-.2,1.224v.321a3.3,3.3,0,0,0,.206,1.245,1.527,1.527,0,0,0,.627.754,2.056,2.056,0,0,0,1.082.255,2.177,2.177,0,0,0,.9-.176A1.321,1.321,0,0,0,5,212.947a1.6,1.6,0,0,0,.206-.836H6.7a2.774,2.774,0,0,1-.409,1.561,2.478,2.478,0,0,1-1.133.924A4.228,4.228,0,0,1,3.5,214.9Z" transform="translate(-0.01 -144.668)" fill="#898989"/><path d="M47.41,214.895a4.345,4.345,0,0,1-1.945-.4,2.787,2.787,0,0,1-1.251-1.221,4.317,4.317,0,0,1-.433-2.048,4.376,4.376,0,0,1,.433-2.063,2.767,2.767,0,0,1,1.251-1.212,4.995,4.995,0,0,1,3.9,0,2.754,2.754,0,0,1,1.245,1.212,5.094,5.094,0,0,1,0,4.112,2.8,2.8,0,0,1-1.245,1.221A4.354,4.354,0,0,1,47.41,214.895Zm0-1.261a2.491,2.491,0,0,0,.888-.145,1.609,1.609,0,0,0,.639-.433,1.965,1.965,0,0,0,.394-.709,3.079,3.079,0,0,0,.133-.954v-.321a3.282,3.282,0,0,0-.133-.973,1.915,1.915,0,0,0-.394-.709,1.587,1.587,0,0,0-.639-.427,2.49,2.49,0,0,0-.888-.145,2.462,2.462,0,0,0-.879.145,1.629,1.629,0,0,0-.642.427,1.864,1.864,0,0,0-.388.709,3.374,3.374,0,0,0-.13.973v.321a3.175,3.175,0,0,0,.13.954,1.911,1.911,0,0,0,.388.709,1.61,1.61,0,0,0,.642.433A2.462,2.462,0,0,0,47.41,213.634Z" transform="translate(-30.517 -144.661)" fill="#898989"/><path d="M90.646,215.063V207.97h1.415l2.854,3.827c.039.048.094.115.155.2s.121.17.176.251a1.227,1.227,0,0,1,.112.2h.052V207.97h1.457v7.093H95.449l-2.915-3.918c-.07-.1-.139-.2-.218-.321s-.13-.206-.167-.27H92.1v4.506H90.64Z" transform="translate(-63.178 -144.953)" fill="#898989"/><path d="M137.172,214.909a5.47,5.47,0,0,1-1.179-.124,3.057,3.057,0,0,1-.988-.4,2.035,2.035,0,0,1-.673-.691,1.986,1.986,0,0,1-.242-1.018v-.109a.226.226,0,0,1,.012-.088h1.53a.293.293,0,0,0-.012.082v.094a.862.862,0,0,0,.182.558,1.082,1.082,0,0,0,.533.342,2.657,2.657,0,0,0,.818.112,3.513,3.513,0,0,0,.533-.036,2.374,2.374,0,0,0,.415-.1,1.157,1.157,0,0,0,.3-.161.551.551,0,0,0,.176-.218.683.683,0,0,0,.058-.279.616.616,0,0,0-.179-.454,1.444,1.444,0,0,0-.5-.3,6.318,6.318,0,0,0-.709-.227l-.806-.212a6.622,6.622,0,0,1-.806-.27,3.19,3.19,0,0,1-.7-.388,1.7,1.7,0,0,1-.5-.579,1.794,1.794,0,0,1,.664-2.388,3,3,0,0,1,.93-.367,5.243,5.243,0,0,1,1.148-.118,4.908,4.908,0,0,1,1.1.118,2.729,2.729,0,0,1,.909.379,1.886,1.886,0,0,1,.615.651,1.854,1.854,0,0,1,.224.93v.124h-1.5v-.082a.707.707,0,0,0-.167-.476,1.061,1.061,0,0,0-.467-.309,1.978,1.978,0,0,0-.7-.112,2.881,2.881,0,0,0-.739.082,1.045,1.045,0,0,0-.467.242.519.519,0,0,0-.161.376.526.526,0,0,0,.179.409,1.586,1.586,0,0,0,.5.279,5.831,5.831,0,0,0,.709.212c.264.061.53.13.806.206a7.852,7.852,0,0,1,.806.27,2.959,2.959,0,0,1,.7.388,1.771,1.771,0,0,1,.5.573,1.682,1.682,0,0,1,.185.818,2.039,2.039,0,0,1-.394,1.312,2.23,2.23,0,0,1-1.076.724,4.933,4.933,0,0,1-1.56.227Z" transform="translate(-93.463 -144.675)" fill="#898989"/><path d="M180.062,215.188a4.1,4.1,0,0,1-1.67-.309,2.277,2.277,0,0,1-1.07-.936,3,3,0,0,1-.373-1.557V207.97H178.5v4.372a1.588,1.588,0,0,0,.4,1.173,1.554,1.554,0,0,0,1.158.409,1.427,1.427,0,0,0,1.573-1.582V207.97h1.551v4.415a3,3,0,0,1-.373,1.557,2.308,2.308,0,0,1-1.07.936A4.146,4.146,0,0,1,180.062,215.188Z" transform="translate(-123.336 -144.953)" fill="#898989"/><path d="M221.37,215.063V207.97h1.539v5.781h3.579v1.312Z" transform="translate(-154.296 -144.953)" fill="#898989"/><path d="M257.626,215.063v-5.8H255.35V207.97h6.112v1.294h-2.285v5.8Z" transform="translate(-177.98 -144.953)" fill="#898989"/><path d="M297.72,215.063V207.97h1.542v7.093Z" transform="translate(-207.511 -144.953)" fill="#898989"/><path d="M326.746,215.063V207.97h1.415l2.854,3.827c.039.048.094.115.155.2s.121.17.176.251a1.225,1.225,0,0,1,.112.2h.052V207.97h1.457v7.093h-1.418l-2.915-3.918c-.07-.1-.139-.2-.218-.321s-.13-.206-.167-.27H328.2v4.506H326.74Z" transform="translate(-227.738 -144.953)" fill="#898989"/><path d="M373.875,214.9a3.506,3.506,0,0,1-2.579-.894,3.759,3.759,0,0,1-.906-2.776,4.377,4.377,0,0,1,.433-2.063,2.75,2.75,0,0,1,1.264-1.212,4.564,4.564,0,0,1,1.985-.4,5.3,5.3,0,0,1,1.3.155,3.367,3.367,0,0,1,1.082.476,2.293,2.293,0,0,1,.733.8,2.34,2.34,0,0,1,.264,1.142h-1.56a1.142,1.142,0,0,0-.139-.57,1.2,1.2,0,0,0-.388-.412,1.78,1.78,0,0,0-.567-.248,2.574,2.574,0,0,0-.673-.085,2.87,2.87,0,0,0-.942.139,1.628,1.628,0,0,0-.667.424,1.826,1.826,0,0,0-.4.706,3.221,3.221,0,0,0-.133.982v.309a3.077,3.077,0,0,0,.227,1.273,1.531,1.531,0,0,0,.682.739,2.35,2.35,0,0,0,1.127.242,2.636,2.636,0,0,0,.988-.173,1.5,1.5,0,0,0,.673-.491,1.249,1.249,0,0,0,.242-.785v-.073h-2.118v-1.179h3.648v3.836h-1.012l-.133-.764a3.233,3.233,0,0,1-.667.5,2.925,2.925,0,0,1-.791.294,4.352,4.352,0,0,1-.973.1Z" transform="translate(-258.162 -144.668)" fill="#898989"/><path d="M168.11,77.877h13.654l-7.133-9.987Z" transform="translate(-117.174 -47.319)" fill="#ff7c00" fill-rule="evenodd"/></g></g></svg>