<svg xmlns="http://www.w3.org/2000/svg" width="15" height="15" viewBox="0 0 15 15"><path d="M14.7,13.339a2.825,2.825,0,0,1-1.3,1.116A4.1,4.1,0,0,1,11.41,15a8.253,8.253,0,0,1-2.8-.736,9.807,9.807,0,0,1-1.867-.9A18.076,18.076,0,0,1,1.623,8.275a10.081,10.081,0,0,1-.9-1.866A8.652,8.652,0,0,1,0,3.613,4.1,4.1,0,0,1,.542,1.629,2.824,2.824,0,0,1,1.677.328,4.8,4.8,0,0,1,3.164,0,.538.538,0,0,1,3.386.03c.226.077.452.6.57.813.339.605.669,1.224,1.022,1.807.172.28.493.619.493.949,0,.651-1.935,1.6-1.935,2.178a2.258,2.258,0,0,0,.42.9,10.6,10.6,0,0,0,4.362,4.364,2.3,2.3,0,0,0,.9.416c.579,0,1.528-1.934,2.179-1.934.33,0,.674.321.949.492.6.352,1.216.682,1.808,1.026.212.1.732.339.809.565A.537.537,0,0,1,15,11.83a4.764,4.764,0,0,1-.3,1.509Z" transform="translate(0 0.003)" fill="#f99d34"/></svg>