<svg xmlns="http://www.w3.org/2000/svg" width="55" height="37" viewBox="0 0 55 37"><path d="M-6746.328,7030.44c3.167,5.945-21.309-1.228-18.13-22.778,1.222-8.547,6.4-11.867,11.9-12.194,6.267-.38,12.159,4.282,12.159,12.194.089,4.942-1.706,8.089-4.452,9.255-3.7,1.982-5.385.117-6.862,3.031C-6752.873,7023.563-6750.444,7026.709-6746.328,7030.44Z" transform="translate(6764.744 -6995.447)" fill="#f99d34"/><path d="M-6746.328,7030.44c3.167,5.945-21.309-1.228-18.13-22.778,1.222-8.547,6.4-11.867,11.9-12.194,6.267-.38,12.159,4.282,12.159,12.194.089,4.942-1.706,8.089-4.452,9.255-3.7,1.982-5.385.117-6.862,3.031C-6752.873,7023.563-6750.444,7026.709-6746.328,7030.44Z" transform="translate(6795.394 -6995.447)" fill="#f99d34"/></svg>