<svg xmlns="http://www.w3.org/2000/svg" width="20" height="20" viewBox="0 0 51.376 51.377"><path d="M284.641,7475.271c-.619,1.746-3.08,3.211-5.043,3.621-1.344.285-3.1.516-9-1.926-6.63-2.748-15.837-12.535-15.837-19.033,0-3.314,1.911-7.193,5.253-7.193,1.608,0,1.963.051,2.492,1.311.619,1.49,2.13,5.188,2.309,5.549.742,1.566-.755,2.465-1.842,3.8a1.228,1.228,0,0,0-.3,1.619,22.773,22.773,0,0,0,4.167,5.162,18.914,18.914,0,0,0,6.024,3.725,1.61,1.61,0,0,0,1.811-.281,29.478,29.478,0,0,0,2.009-2.672,1.427,1.427,0,0,1,1.842-.539c.46.152,6.3,2.852,6.55,3.287a6.377,6.377,0,0,1-.437,3.57M269.693,7439h-.013A25.72,25.72,0,0,0,244,7464.689a25.433,25.433,0,0,0,4.891,15.053l-3.2,9.557,9.872-3.16a25.411,25.411,0,0,0,14.131,4.238,25.688,25.688,0,0,0,0-51.377" transform="translate(-244 -7439)" fill-rule="evenodd" fill="#f99d34"/></svg>