<svg xmlns="http://www.w3.org/2000/svg" width="41" height="41" viewBox="0 0 41.808 41.96"><g transform="translate(-1.248)"><path d="M111.006-495.8a6.8,6.8,0,0,0-.763,1.877l-.557,1.679-.826.287a16.087,16.087,0,0,0-1.518.638l-.692.35-1.563-.808a9.032,9.032,0,0,0-1.823-.808c-.225,0-.548.278-2.129,1.868a11.213,11.213,0,0,0-1.859,2.066,13.9,13.9,0,0,0,.808,1.814l.808,1.617-.323.656a15.166,15.166,0,0,0-.656,1.536l-.323.889-1.733.584c-1.545.512-1.742.6-1.859.826a24.568,24.568,0,0,0,0,5.389c.117.225.314.314,1.859.826l1.733.584.323.916a6.646,6.646,0,0,0,.413,1.006,14.3,14.3,0,0,0,1.9-1.751l1.832-1.832-.108-.53a10.155,10.155,0,0,1,3.619-9.781,10.065,10.065,0,0,1,12.87.305,10.178,10.178,0,0,1,3.314,9.08,10.043,10.043,0,0,1-8.748,8.46,12.542,12.542,0,0,1-3.152-.1l-.4-.1-1.868,1.868c-1.024,1.024-1.85,1.877-1.832,1.9s.476.189,1.006.368l.97.341.566,1.7a7.188,7.188,0,0,0,.754,1.85c.171.144.449.162,2.784.162,2.56,0,2.587,0,2.811-.207a6.515,6.515,0,0,0,.763-1.868l.548-1.662.656-.207c.35-.117,1.042-.4,1.527-.62l.889-.413,1.563.781a10.828,10.828,0,0,0,1.814.781c.2,0,.584-.341,2.111-1.868,1.509-1.509,1.859-1.9,1.859-2.111a10.88,10.88,0,0,0-.781-1.805l-.781-1.563.341-.728c.189-.4.467-1.1.638-1.554l.3-.826,1.688-.557a6.256,6.256,0,0,0,1.85-.754c.144-.18.162-.422.162-2.793,0-2.56,0-2.587-.2-2.811a6.8,6.8,0,0,0-1.877-.763l-1.662-.548-.207-.656c-.117-.35-.4-1.042-.62-1.527l-.413-.889.781-1.563a10.827,10.827,0,0,0,.781-1.814c0-.2-.341-.584-1.868-2.111-1.563-1.563-1.9-1.859-2.12-1.859a9.424,9.424,0,0,0-1.814.808l-1.563.808-.736-.368a14.961,14.961,0,0,0-1.554-.665l-.8-.3-.566-1.688a7.526,7.526,0,0,0-.754-1.859c-.171-.135-.449-.153-2.784-.153C111.257-496,111.23-496,111.006-495.8Z" transform="translate(-88.732 496)" fill="#073168"/><path d="M40.477-375.593a7.228,7.228,0,0,0-5.892,6.044,9.532,9.532,0,0,0,.054,2.479c.045.2-.467.745-4.607,4.877l-3.413,3.55-.745-.117a7.178,7.178,0,0,0-7.454,4.176,6.239,6.239,0,0,0-.575,3.018,4.938,4.938,0,0,0,.251,1.949,1.913,1.913,0,0,0,.485.925c.449.359.62.251,2.641-1.769l1.859-1.859,1.033.251,1.024.251.251,1.015.251,1.024-1.859,1.886c-1.778,1.814-1.859,1.913-1.859,2.245,0,.467.234.647,1.186.916a8.378,8.378,0,0,0,3.53.063,7.219,7.219,0,0,0,4.356-3.1,7.234,7.234,0,0,0,1.087-4.922l-.108-.62,3.4-3.541,4.652-4.652.4.063a10.482,10.482,0,0,0,2.919-.081,7.164,7.164,0,0,0,4.356-3.1,6.413,6.413,0,0,0,1.114-3.979,4.938,4.938,0,0,0-.251-1.949,1.913,1.913,0,0,0-.485-.925c-.449-.359-.62-.242-2.623,1.76l-1.85,1.841-.979-.243a5.569,5.569,0,0,1-1.06-.305,11.507,11.507,0,0,1-.512-1.9,17.588,17.588,0,0,1,1.832-1.967c1.985-1.958,2.111-2.147,1.787-2.6a4.314,4.314,0,0,0-2.721-.781A8.416,8.416,0,0,0,40.477-375.593Z" transform="translate(-16.595 386.47)" fill="#073168"/></g></svg>