<svg xmlns="http://www.w3.org/2000/svg" width="45" height="45" viewBox="0 0 45.001 45.001"><path d="M26.3,0a5.077,5.077,0,0,1,3.093.979c1.219.778,2.57,2.308,4.251,3.275,2.36,1.362,6.738-.517,8.982,2.841a8.862,8.862,0,0,1,1.467,5,8.828,8.828,0,0,0,2.051,5.355c2.757,3.67,3.308,6.117,1.9,8.658-.965,1.729-3,2.7-3.468,3.792-1,2.335.1,4.1-1.268,6.823a7.213,7.213,0,0,1-4.373,3.77c-1.654.556-3.308-.239-4.626.323-2.321.99-4.036,3.275-5.906,3.853a7.111,7.111,0,0,1-4.262,0c-1.847-.556-3.557-2.864-5.878-3.848-1.323-.556-2.978.217-4.626-.323a7.185,7.185,0,0,1-4.378-3.77C7.888,34.007,9,32.245,7.993,29.909c-.469-1.112-2.5-2.063-3.468-3.792-1.4-2.547-.822-4.988,1.93-8.658A8.9,8.9,0,0,0,8.506,12.1a8.753,8.753,0,0,1,1.467-5c2.239-3.336,6.617-1.479,8.982-2.841,1.654-.968,3.038-2.5,4.246-3.27A5.093,5.093,0,0,1,26.3,0ZM21.071,20.84,24.144,23.6l6.9-5.861c.513-.528.838-.951,1.478-.289l1.516,1.674c.678.678.645,1.079,0,1.713l-8.751,7.518c-1.351,1.34-1.1,1.423-2.487.05l-4.786-4.8a.609.609,0,0,1,.055-.94l1.951-1.841c.364-.378.656-.356,1.031,0Zm5.185-9.516c7.355.009,11.421,5.085,11.4,11.534S31.706,34.28,26.233,34.371A11.248,11.248,0,0,1,14.821,22.847c0-7.417,5.527-11.491,11.412-11.523Z" transform="translate(-3.792 0.002)" fill="#073168" fill-rule="evenodd"/></svg>