<svg xmlns="http://www.w3.org/2000/svg" width="30" height="37" viewBox="0 0 29.064 36.931"><path d="M5.565,4.834C5,5.944,5,7.4,5,10.3V30.627c0,2.906,0,4.36.565,5.47a5.19,5.19,0,0,0,2.269,2.267c1.111.567,2.564.567,5.47.567H25.76c2.906,0,4.36,0,5.47-.567A5.19,5.19,0,0,0,33.5,36.1c.567-1.111.567-2.564.567-5.47V18.583a13.315,13.315,0,0,0-.172-3,6.228,6.228,0,0,0-.747-1.8,13.15,13.15,0,0,0-2-2.242L26.056,4.917a13.415,13.415,0,0,0-2.244-2,6.23,6.23,0,0,0-1.8-.747,13.484,13.484,0,0,0-3-.17H14.834c-2.906,0-5.889,0-7,.565A5.19,5.19,0,0,0,5.565,4.834Zm11.891,11.7V7.854a1.7,1.7,0,0,1,1.02-1.561,5.306,5.306,0,0,1,3.369.307l7.576,9.105a1.7,1.7,0,0,1-1.2,2.9H19.532A2.076,2.076,0,0,1,17.456,16.532Z" transform="translate(-5 -2)" fill="#073168" fill-rule="evenodd"/></svg>